<svg width="800" height="800" viewBox="0 0 800 800" fill="none" xmlns="http://www.w3.org/2000/svg">
<rect width="800" height="800" rx="80" fill="#FFD542"/>
<path d="M506.667 346.667H293.333C234.99 346.667 194.711 384.388 188.39 434.186C179.723 502.474 202.498 543.642 285.301 570.938C322.49 583.197 354.071 609.984 365.589 647.409L371.516 666.667L374.06 664.482C391.365 649.625 410.941 637.638 432.042 628.979L483.283 607.952C570.896 572 622.501 517.069 611.981 434.186C605.661 384.388 565.01 346.667 506.667 346.667Z" fill="#FFF7D9" stroke="#1B1C32" stroke-width="40" stroke-linecap="round" stroke-linejoin="round"/>
<path d="M399.035 265.863C399.035 265.863 317.033 274.037 274.094 238.255C231.156 202.473 240.965 134.137 240.965 134.137C240.965 134.137 322.967 125.963 365.906 161.745C408.844 197.527 399.035 265.863 399.035 265.863Z" fill="#FFD542" stroke="#1B1C32" stroke-width="40" stroke-linecap="round" stroke-linejoin="round"/>
<path d="M400.965 265.863C400.965 265.863 482.967 274.037 525.906 238.255C568.844 202.473 559.035 134.137 559.035 134.137C559.035 134.137 477.033 125.963 434.094 161.745C391.156 197.527 400.965 265.863 400.965 265.863Z" fill="#FFD542" stroke="#1B1C32" stroke-width="40" stroke-linecap="round" stroke-linejoin="round"/>
<path d="M586.667 386.667C573.333 413.333 503.093 426.667 400 426.667C296.907 426.667 226.667 413.333 213.333 386.667" stroke="#1B1C32" stroke-width="40" stroke-linejoin="round"/>
</svg>
