<svg width="24" height="24" viewBox="0 0 24 24" fill="none" xmlns="http://www.w3.org/2000/svg">
<style>
  #mix {
    stroke: #1B1C32;
    fill: #1B1C32;
  }
  path {
    fill: #1B1C32;
  }
  @media (prefers-color-scheme: dark) {
    #mix {
      stroke: white;
      fill: white;
    }
    path {
      fill: white;
    }
  }
</style>
<path id="mix" d="M15.6876 10H8.32633C6.13847 10 4.30164 11.4146 4.06463 13.282C3.7396 15.8428 4.59366 17.3866 7.69879 18.4102C9.09338 18.8699 10.2777 19.8744 10.7096 21.2778L10.9318 22L11.0272 21.9181C11.6762 21.3609 12.4103 20.9114 13.2016 20.5867L15.1231 19.7982C18.4086 18.45 20.3438 16.3901 19.9493 13.282C19.7123 11.4146 17.8754 10 15.6876 10Z" fill="#1B1C32" fill-opacity="0.3" stroke="#1B1C32" stroke-width="1.5" stroke-linecap="round" stroke-linejoin="round"/>
<path fill-rule="evenodd" clip-rule="evenodd" d="M6.03618 2.03015C5.29379 1.92358 5.29375 1.92384 5.29371 1.92411L5.29343 1.92606L5.29295 1.9295L5.29165 1.93918L5.28782 1.96953C5.28481 1.99453 5.28097 2.02896 5.27688 2.07187C5.26873 2.1576 5.25959 2.27778 5.25434 2.42476C5.2439 2.71728 5.24861 3.1235 5.3103 3.57967C5.4313 4.47447 5.78723 5.66808 6.79839 6.51072C7.78322 7.33141 9.14525 7.60729 10.1549 7.7021C10.6763 7.75107 11.1416 7.75486 11.4768 7.74655C11.6449 7.74238 11.7816 7.73514 11.878 7.72877C11.9262 7.72559 11.9644 7.72262 11.9914 7.72036L12 7.71961L12.0086 7.72036C12.0356 7.72262 12.0738 7.72559 12.122 7.72877C12.2184 7.73514 12.3551 7.74238 12.5232 7.74655C12.8584 7.75486 13.3237 7.75107 13.8451 7.7021C14.8547 7.60729 16.2168 7.33141 17.2016 6.51072C18.2128 5.66808 18.5687 4.47447 18.6897 3.57967C18.7514 3.1235 18.7561 2.71728 18.7457 2.42476C18.7404 2.27778 18.7313 2.1576 18.7231 2.07187C18.719 2.02896 18.7152 1.99453 18.7122 1.96953L18.7083 1.93918L18.707 1.9295L18.7066 1.92606L18.7064 1.9247C18.7063 1.92443 18.7062 1.92358 17.9638 2.03015L18.7062 1.92358C18.6572 1.58208 18.3815 1.31807 18.0382 1.28385L17.9638 2.03015C18.0382 1.28385 18.0384 1.28387 18.0382 1.28385L18.0362 1.28365L18.0331 1.28335L18.0236 1.28245L17.9914 1.27964C17.9644 1.27738 17.9262 1.27441 17.878 1.27123C17.7816 1.26486 17.6449 1.25762 17.4768 1.25345C17.1416 1.24514 16.6763 1.24893 16.1549 1.2979C15.1452 1.39271 13.7832 1.66859 12.7984 2.48928C12.4667 2.76569 12.2055 3.07986 12 3.40887C11.7945 3.07986 11.5333 2.76569 11.2016 2.48928C10.2168 1.66859 8.85475 1.39271 7.84512 1.2979C7.32365 1.24893 6.85836 1.24514 6.52323 1.25345C6.35513 1.25762 6.21838 1.26486 6.12203 1.27123C6.07382 1.27441 6.03563 1.27738 6.00857 1.27964L5.97644 1.28245L5.96687 1.28335L5.96376 1.28365L5.96263 1.28376C5.96243 1.28378 5.96178 1.28385 6.03618 2.03015ZM6.75059 2.75014C6.75332 2.93538 6.76583 3.14986 6.79677 3.37866C6.8944 4.10061 7.15965 4.8592 7.75867 5.35839C8.38403 5.87952 9.36465 6.12129 10.2951 6.20867C10.653 6.24228 10.9826 6.25127 11.2494 6.24986C11.2467 6.06462 11.2342 5.85013 11.2032 5.62134C11.1056 4.89939 10.8403 4.1408 10.2413 3.64161C9.61596 3.12047 8.63534 2.8787 7.70487 2.79133C7.34699 2.75772 7.0174 2.74873 6.75059 2.75014ZM12.7506 6.24986C13.0174 6.25127 13.347 6.24228 13.7049 6.20867C14.6353 6.12129 15.616 5.87952 16.2413 5.35839C16.8403 4.8592 17.1056 4.10061 17.2032 3.37866C17.2342 3.14986 17.2467 2.93538 17.2494 2.75014C16.9826 2.74873 16.653 2.75772 16.2951 2.79133C15.3646 2.8787 14.384 3.12047 13.7587 3.64161C13.1596 4.1408 12.8944 4.89939 12.7968 5.62134C12.7658 5.85013 12.7533 6.06462 12.7506 6.24986ZM6.03618 2.03015L5.96263 1.28376C5.61933 1.31798 5.34273 1.58261 5.29371 1.92411L6.03618 2.03015ZM6.10971 2.77653C6.10945 2.77656 6.10961 2.77654 6.10971 2.77653Z" fill="#1B1C32"/>
<path fill-rule="evenodd" clip-rule="evenodd" d="M9.73555 14.8529C9.81678 15.2591 9.55337 15.6542 9.1472 15.7355C8.09478 15.9459 7.49557 16.4596 7.15462 16.898C6.98035 17.122 6.86959 17.3322 6.80378 17.4818C6.77102 17.5562 6.74993 17.6145 6.73799 17.6503C6.73204 17.6681 6.72841 17.6803 6.7268 17.6858C6.72614 17.6881 6.72582 17.6893 6.72582 17.6893L6.72586 17.6891L6.72645 17.6869L6.727 17.6848L6.72734 17.6834L6.72752 17.6827C6.72762 17.6823 6.72772 17.6819 6.00011 17.5C5.2725 17.3181 5.2726 17.3177 5.27271 17.3173L5.27293 17.3164L5.2734 17.3146L5.27451 17.3102L5.27738 17.2994C5.27959 17.2912 5.2824 17.281 5.28587 17.269C5.2928 17.2451 5.30236 17.2137 5.31496 17.1759C5.34014 17.1004 5.37763 16.9985 5.43081 16.8777C5.53687 16.6366 5.70737 16.3155 5.9706 15.9771C6.50465 15.2904 7.40544 14.5541 8.85302 14.2646C9.25919 14.1834 9.65431 14.4468 9.73555 14.8529Z" fill="#1B1C32"/>
</svg>
