<svg width="24" height="24" viewBox="0 0 24 24" fill="none" xmlns="http://www.w3.org/2000/svg">
<circle r="4.5" transform="matrix(-1 0 0 1 18.5 6.5)" stroke="black" stroke-width="2"/>
<circle cx="5.5" cy="6.5" r="4.5" stroke="black" stroke-width="2"/>
<path d="M14 7L14 22C14 22.5523 14.4477 23 15 23H16C16.5523 23 17 22.5509 17 21.9986C17 18.0671 17 15.7999 17 11.5714" stroke="black" stroke-width="2" stroke-linecap="round"/>
<path d="M10 7L10 22C10 22.5523 9.55228 23 9 23H8C7.44772 23 7 22.5509 7 21.9986C7 18.0671 7 15.7999 7 11.5714" stroke="black" stroke-width="2" stroke-linecap="round"/>
<line y1="-1" x2="3" y2="-1" transform="matrix(-1 0 0 1 17 20)" stroke="black" stroke-width="2"/>
<line x1="7" y1="19" x2="10" y2="19" stroke="black" stroke-width="2"/>
<path d="M21 4L20.4993 4.62591C19.6227 5.72157 19.6227 7.27843 20.4993 8.37409L21 9" stroke="black" stroke-width="2"/>
<path d="M3 4L3.50073 4.62591C4.37726 5.72157 4.37726 7.27843 3.50073 8.37409L3 9" stroke="black" stroke-width="2"/>
</svg>
