<svg width="24" height="24" viewBox="0 0 24 24" fill="none" xmlns="http://www.w3.org/2000/svg">
<path d="M19.7341 16.0598C18.8808 17.778 17.5087 19.1725 15.8192 20.0384C14.1297 20.9043 12.212 21.1959 10.3476 20.8705C8.48325 20.545 6.77057 19.6196 5.46115 18.2302C4.15172 16.8407 3.31456 15.0606 3.07263 13.1511C2.8307 11.2416 3.19676 9.30348 4.11703 7.6214C5.0373 5.93933 6.46329 4.60195 8.18552 3.80573C9.90776 3.0095 11.8355 2.79638 13.6855 3.19769C15.5355 3.59899 17.0517 4.51138 18.3053 5.95312C18.4571 6.11323 19.0407 6.75937 19.5258 7.73437" stroke="black" stroke-width="2" stroke-linecap="round" stroke-linejoin="round"/>
<path d="M15.0687 7.81298L20.109 8.71974L21 3.58952" stroke="black" stroke-width="2" stroke-linecap="round" stroke-linejoin="round"/>
</svg>
