<svg width="24" height="24" viewBox="0 0 24 24" fill="none" xmlns="http://www.w3.org/2000/svg">
<path fill-rule="evenodd" clip-rule="evenodd" d="M12 3C7.02944 3 3 7.02944 3 12C3 16.9706 7.02944 21 12 21C16.9706 21 21 16.9706 21 12C21 7.02944 16.9706 3 12 3ZM1 12C1 5.92487 5.92487 1 12 1C18.0751 1 23 5.92487 23 12C23 18.0751 18.0751 23 12 23C5.92487 23 1 18.0751 1 12Z" fill="black"/>
<path d="M12.7071 7.29289C12.3166 6.90237 11.6834 6.90237 11.2929 7.29289C10.9024 7.68342 10.9024 8.31658 11.2929 8.70711L13.5858 11H8C7.44772 11 7 11.4477 7 12C7 12.5523 7.44772 13 8 13H13.5858L11.2929 15.2929C10.9024 15.6834 10.9024 16.3166 11.2929 16.7071C11.6834 17.0976 12.3166 17.0976 12.7071 16.7071L16.7071 12.7071C17.0976 12.3166 17.0976 11.6834 16.7071 11.2929L12.7071 7.29289Z" fill="black"/>
</svg>
