<svg width="24" height="24" viewBox="0 0 24 24" fill="none" xmlns="http://www.w3.org/2000/svg">
<path d="M5.27837 9.94444C5.30885 6.65255 7.98608 4 11.2781 4H12.722C16.0141 4 18.6913 6.65255 18.7218 9.94445L18.7779 16H19.7509C20.2281 16 20.6323 16.3519 20.6979 16.8246C20.8576 17.9743 19.9646 19 18.8038 19H5.19634C4.0356 19 3.14253 17.9743 3.30221 16.8246C3.36787 16.3519 3.77203 16 4.24928 16H5.2223L5.27837 9.94444Z" stroke="black" stroke-width="2" stroke-linecap="round" stroke-linejoin="round"/>
<path d="M12.0001 22C13.6569 22 15.0001 20.6569 15.0001 19H9.00008C9.00008 20.6569 10.3432 22 12.0001 22Z" stroke="black" stroke-width="2" stroke-linecap="round" stroke-linejoin="round"/>
<path d="M12 4V2" stroke="black" stroke-width="2" stroke-linecap="round" stroke-linejoin="round"/>
</svg>
