<svg width="24" height="24" viewBox="0 0 24 24" fill="none" xmlns="http://www.w3.org/2000/svg">
<path d="M5.27828 9.94444C5.30876 6.65255 7.98599 4 11.278 4H12.722C16.014 4 18.6912 6.65255 18.7217 9.94445L18.7778 16H19.7508C20.228 16 20.6322 16.3519 20.6979 16.8246C20.8575 17.9743 19.9645 19 18.8037 19H5.19625C4.03551 19 3.14244 17.9743 3.30212 16.8246C3.36778 16.3519 3.77194 16 4.24919 16H5.22221L5.27828 9.94444Z" stroke="black" stroke-width="2" stroke-linecap="round" stroke-linejoin="round"/>
<path d="M12 22C13.6568 22 15 20.6569 15 19H8.99999C8.99999 20.6569 10.3431 22 12 22Z" stroke="black" stroke-width="2" stroke-linecap="round" stroke-linejoin="round"/>
<path d="M12 4V2" stroke="black" stroke-width="2" stroke-linecap="round" stroke-linejoin="round"/>
</svg>
