<svg width="24" height="24" viewBox="0 0 24 24" fill="none" xmlns="http://www.w3.org/2000/svg">
<path d="M8.78455 3.9287L8.07735 2M19.6124 13.1219L17.4167 7.30194C16.223 4.1381 12.6842 2.51981 9.48595 3.67529L8.08316 4.1821C4.88494 5.33759 3.22193 8.83526 4.35633 12.0205L6.44309 17.8798L5.4978 18.2214C5.03415 18.3889 4.76594 18.8701 4.86931 19.349C5.12071 20.5138 6.35101 21.1894 7.47867 20.782L20.6984 16.0059C21.826 15.5984 22.331 14.2959 21.7693 13.2432C21.5384 12.8104 21.0213 12.6129 20.5577 12.7804L19.6124 13.1219ZM15.5457 17.8675C16.1316 19.4652 15.3016 21.2319 13.692 21.8135C12.0824 22.395 10.3025 21.5712 9.71668 19.9734L15.5457 17.8675Z" stroke="black" stroke-width="2" stroke-linecap="round" stroke-linejoin="round"/>
</svg>
