<svg width="24" height="24" viewBox="0 0 24 24" fill="none" xmlns="http://www.w3.org/2000/svg">
<g clip-path="url(#clip0_399_390)">
<path d="M11.3848 15.2749C12.4961 15.2709 14.9248 15.2622 14.8971 13.7167C14.8696 12.1362 12.5376 12.232 11.3997 12.2788C11.2725 12.284 11.1603 12.2886 11.0678 12.2902L11.1196 15.2769C11.1955 15.2755 11.2848 15.2752 11.3848 15.2749Z" fill="black"/>
<path d="M11.2672 10.9218C12.1943 10.9208 14.2166 10.9188 14.1925 9.51381C14.1673 8.07687 12.2241 8.1623 11.275 8.20402C11.1683 8.20871 11.0741 8.21285 10.9967 8.21421L11.0439 10.923C11.1077 10.9219 11.1829 10.9218 11.2672 10.9218Z" fill="black"/>
<path fill-rule="evenodd" clip-rule="evenodd" d="M9.09602 23.641C15.5261 25.2441 22.0379 21.3317 23.6408 14.9031C25.2437 8.4741 21.3313 1.96185 14.9016 0.359098C8.47345 -1.24365 1.96163 2.6691 0.359461 9.09847C-1.24421 15.5267 2.66858 22.0382 9.09602 23.641ZM13.378 6.62195C15.1321 6.74481 16.5287 7.25928 16.7113 8.86344C16.8468 10.0372 16.3673 10.7515 15.5876 11.1658C16.8879 11.4541 17.7128 12.2095 17.5828 13.937C17.422 16.0824 15.8354 16.6849 13.5566 16.8555L13.5954 19.1058L12.2386 19.1296L12.2004 16.9095C11.8488 16.9159 11.4886 16.9193 11.1164 16.9181L11.1553 19.1485L9.79996 19.1719L9.76003 16.9177C9.63316 16.9191 9.50533 16.9199 9.37659 16.9208C9.18324 16.9221 8.98785 16.9234 8.79059 16.9266L7.02486 16.9575L7.26617 15.3326C7.26617 15.3326 8.27012 15.3307 8.25249 15.3156C8.63645 15.3082 8.73331 15.0307 8.75441 14.8573L8.69266 11.3002C8.72587 11.2994 8.75848 11.2989 8.78995 11.2984C8.8056 11.2981 8.82097 11.2978 8.83599 11.2976C8.77983 11.2909 8.73033 11.2902 8.6924 11.2906L8.64796 8.75147C8.59112 8.47708 8.40668 8.16117 7.85709 8.1706C7.87342 8.15186 6.87178 8.18845 6.87178 8.18845L6.84613 6.73946L8.71755 6.70744L8.71785 6.71434C8.99914 6.70925 9.28753 6.69876 9.58119 6.68763L9.54279 4.45939L10.8989 4.43577L10.9368 6.62026C11.299 6.60671 11.6634 6.5933 12.0201 6.58703L11.9822 4.41691L13.339 4.39309L13.378 6.62195Z" fill="black"/>
</g>
<defs>
<clipPath id="clip0_399_390">
<rect width="24" height="24" fill="white"/>
</clipPath>
</defs>
</svg>
