<svg width="24" height="24" viewBox="0 0 24 24" fill="none" xmlns="http://www.w3.org/2000/svg">
<path fill-rule="evenodd" clip-rule="evenodd" d="M4 8C3.44772 8 3 8.44772 3 9V19C3 19.5523 3.44772 20 4 20H20C20.5523 20 21 19.5523 21 19V9C21 8.44772 20.5523 8 20 8H4ZM1 9C1 7.34315 2.34315 6 4 6H20C21.6569 6 23 7.34315 23 9V19C23 20.6569 21.6569 22 20 22H4C2.34315 22 1 20.6569 1 19V9Z" fill="black"/>
<path fill-rule="evenodd" clip-rule="evenodd" d="M7.87868 2.87868C8.44129 2.31607 9.20435 2 10 2H14C14.7956 2 15.5587 2.31607 16.1213 2.87868C16.6839 3.44129 17 4.20435 17 5V21C17 21.5523 16.5523 22 16 22C15.4477 22 15 21.5523 15 21V5C15 4.73478 14.8946 4.48043 14.7071 4.29289C14.5196 4.10536 14.2652 4 14 4H10C9.73478 4 9.48043 4.10536 9.29289 4.29289C9.10536 4.48043 9 4.73478 9 5V21C9 21.5523 8.55228 22 8 22C7.44772 22 7 21.5523 7 21V5C7 4.20435 7.31607 3.44129 7.87868 2.87868Z" fill="black"/>
</svg>
