<svg width="24" height="24" viewBox="0 0 24 24" fill="none" xmlns="http://www.w3.org/2000/svg">
<path d="M3 10C3 8.89543 3.89543 8 5 8H19C20.1046 8 21 8.89543 21 10V19C21 20.1046 20.1046 21 19 21H5C3.89543 21 3 20.1046 3 19V10Z" stroke="black" stroke-width="2" stroke-linecap="round" stroke-linejoin="round"/>
<path d="M3 12L5.91369 14.331C7.10143 15.2811 8.81369 15.1863 9.88923 14.1108V14.1108C11.055 12.945 12.945 12.945 14.1108 14.1108V14.1108C15.1863 15.1863 16.8986 15.2811 18.0863 14.331L21 12" stroke="black" stroke-width="2" stroke-linecap="round"/>
<path d="M12 7C10.8954 7 10 6.10457 10 5C10 4.12447 10.6774 3.42429 11.2732 2.78271L12 2L12.7268 2.78271C13.3226 3.42429 14 4.12447 14 5C14 6.10457 13.1046 7 12 7Z" stroke="black" stroke-width="2" stroke-linecap="round" stroke-linejoin="round"/>
</svg>
