<svg width="24" height="24" viewBox="0 0 24 24" fill="none" xmlns="http://www.w3.org/2000/svg">
<path d="M2 6C2 3.79086 3.79086 2 6 2H18C20.2091 2 22 3.79086 22 6V11H2V6Z" stroke="black" stroke-width="2" stroke-linecap="round" stroke-linejoin="round"/>
<path d="M18.5 16.5L15.5 16.5" stroke="black" stroke-width="2" stroke-linecap="round"/>
<path d="M12 11H22V18C22 20.2091 20.2091 22 18 22H12V11Z" stroke="black" stroke-width="2" stroke-linecap="round" stroke-linejoin="round"/>
<path d="M12 11H2V18C2 20.2091 3.79086 22 6 22H12V11Z" stroke="black" stroke-width="2" stroke-linecap="round" stroke-linejoin="round"/>
<path d="M5.5 18L7 16.5M7 16.5L8.49999 15M7 16.5L8.5 18M7 16.5L5.50001 15" stroke="black" stroke-width="2" stroke-linecap="round"/>
</svg>
