<svg width="24" height="24" viewBox="0 0 24 24" fill="none" xmlns="http://www.w3.org/2000/svg">
<path d="M6.32155 6.39223L6.67845 4.60777C6.86542 3.67292 7.68625 3 8.63961 3H15.3604C16.3138 3 17.1346 3.67292 17.3216 4.60777L17.6784 6.39223C17.8654 7.32708 18.6862 8 19.6396 8H20C21.1046 8 22 8.89543 22 10V19C22 20.1046 21.1046 21 20 21H4C2.89543 21 2 20.1046 2 19V10C2 8.89543 2.89543 8 4 8H4.36039C5.31375 8 6.13458 7.32708 6.32155 6.39223Z" stroke="black" stroke-width="2" stroke-linecap="round" stroke-linejoin="round"/>
<circle cx="12" cy="13" r="4" stroke="black" stroke-width="2" stroke-linecap="round" stroke-linejoin="round"/>
</svg>
