<svg width="24" height="24" viewBox="0 0 24 24" fill="none" xmlns="http://www.w3.org/2000/svg">
<g clip-path="url(#clip0)">
<path fill-rule="evenodd" clip-rule="evenodd" d="M0.292893 0.292893C0.683417 -0.0976311 1.31658 -0.0976311 1.70711 0.292893L23.7071 22.2929C24.0976 22.6834 24.0976 23.3166 23.7071 23.7071C23.3166 24.0976 22.6834 24.0976 22.2929 23.7071L0.292893 1.70711C-0.0976311 1.31658 -0.0976311 0.683417 0.292893 0.292893Z" fill="black"/>
<path fill-rule="evenodd" clip-rule="evenodd" d="M8 3C8 2.44772 8.44772 2 9 2H15C15.3344 2 15.6466 2.1671 15.8321 2.4453L17.5352 5H21C21.7957 5 22.5587 5.31607 23.1213 5.87868C23.6839 6.44129 24 7.20435 24 8V17.34C24 17.8923 23.5523 18.34 23 18.34C22.4477 18.34 22 17.8923 22 17.34V8C22 7.73478 21.8946 7.48043 21.7071 7.29289C21.5196 7.10536 21.2652 7 21 7H17C16.6656 7 16.3534 6.8329 16.1679 6.5547L14.4648 4H9C8.44772 4 8 3.55228 8 3ZM3 7C2.73478 7 2.48043 7.10536 2.29289 7.29289C2.10536 7.48043 2 7.73478 2 8V19C2 19.2652 2.10536 19.5196 2.29289 19.7071C2.48043 19.8946 2.73478 20 3 20H18.5858L15.3235 16.7377C15.0749 16.9615 14.8038 17.1603 14.5138 17.3309C13.8805 17.7034 13.173 17.9317 12.4415 17.9997C11.71 18.0677 10.9725 17.9736 10.2814 17.7242C9.59038 17.4748 8.9628 17.0762 8.44331 16.5567C7.92383 16.0372 7.5252 15.4096 7.27579 14.7186C7.02638 14.0275 6.93232 13.29 7.0003 12.5585C7.06827 11.827 7.29661 11.1195 7.66908 10.4862C7.83965 10.1962 8.03853 9.92506 8.26225 9.67647L5.58579 7H3ZM10.4129 8.99874L6.70711 5.29289C6.51957 5.10536 6.26522 5 6 5H3C2.20435 5 1.44129 5.31607 0.87868 5.87868C0.316071 6.44129 2.98023e-08 7.20435 2.98023e-08 8V19C2.98023e-08 19.7957 0.316071 20.5587 0.87868 21.1213C1.44129 21.6839 2.20435 22 3 22H21C21.4045 22 21.7691 21.7564 21.9239 21.3827C22.0787 21.009 21.9931 20.5789 21.7071 20.2929L16.0012 14.587C15.9925 14.578 15.9836 14.5691 15.9746 14.5603L10.4397 9.02546C10.4309 9.01636 10.422 9.00745 10.4129 8.99874ZM9.67974 11.094C9.57338 11.2208 9.4774 11.3567 9.39298 11.5002C9.16951 11.8801 9.0325 12.3047 8.99172 12.7436C8.95093 13.1825 9.00737 13.625 9.15701 14.0396C9.30666 14.4542 9.54584 14.8308 9.85753 15.1425C10.1692 15.4542 10.5458 15.6933 10.9604 15.843C11.375 15.9926 11.8175 16.0491 12.2564 16.0083C12.6953 15.9675 13.1199 15.8305 13.4998 15.607C13.6433 15.5226 13.7792 15.4266 13.906 15.3203L9.67974 11.094Z" fill="black"/>
</g>
<defs>
<clipPath id="clip0">
<rect width="24" height="24" fill="white"/>
</clipPath>
</defs>
</svg>
