<svg width="24" height="24" viewBox="0 0 24 24" fill="none" xmlns="http://www.w3.org/2000/svg">
<path d="M6.37873 6.48507L6.62127 5.51493C6.84385 4.62459 7.64382 4 8.56155 4H15.4384C16.3562 4 17.1561 4.62459 17.3787 5.51493L17.6213 6.48507C17.8439 7.37541 18.6438 8 19.5616 8H20C21.1046 8 22 8.89543 22 10V18C22 19.1046 21.1046 20 20 20H4C2.89543 20 2 19.1046 2 18V10C2 8.89543 2.89543 8 4 8H4.43845C5.35618 8 6.15615 7.37541 6.37873 6.48507Z" stroke="black" stroke-width="2" stroke-linecap="round" stroke-linejoin="round"/>
<circle cx="12" cy="13" r="4" stroke="black" stroke-width="2" stroke-linecap="round" stroke-linejoin="round"/>
</svg>
