<svg width="24" height="24" viewBox="0 0 24 24" fill="none" xmlns="http://www.w3.org/2000/svg">
<path d="M17 16C19.7614 16 22 13.7614 22 11C22 8.23858 19.7614 6 17 6C16.5971 6 16.2053 6.04766 15.83 6.13765M15.83 6.13765C15.2238 3.75905 13.0673 2 10.5 2C7.46243 2 5 4.46243 5 7.5C5 7.70871 5.01163 7.9147 5.03426 8.11736M15.83 6.13765L14.5 6.5M5.03426 8.11736C3.29168 8.54938 2 10.1238 2 12C2 14.2091 3.79086 16 6 16H7M5.03426 8.11736C5.03426 8.11736 5.1875 9 5.5 9.5" stroke="black" stroke-width="2" stroke-linecap="round" stroke-linejoin="round"/>
<path d="M12 22L12 12M12 22L9 19M12 22L15 19" stroke="black" stroke-width="2" stroke-linecap="round" stroke-linejoin="round"/>
</svg>
