<svg width="24" height="24" viewBox="0 0 24 24" fill="none" xmlns="http://www.w3.org/2000/svg">
<path d="M15.83 9.13765C16.2053 9.04766 16.5971 9 17 9C19.7614 9 22 11.2386 22 14C22 16.7614 19.7614 19 17 19H6C3.79086 19 2 17.2091 2 15C2 13.1238 3.29168 11.5494 5.03426 11.1174M15.83 9.13765C15.2238 6.75905 13.0673 5 10.5 5C7.46243 5 5 7.46243 5 10.5C5 10.7087 5.01163 10.9147 5.03426 11.1174M15.83 9.13765L14.5 9.5M5.03426 11.1174C5.03426 11.1174 5.1875 12 5.5 12.5" stroke="black" stroke-width="2" stroke-linecap="round" stroke-linejoin="round"/>
</svg>
