<svg width="24" height="24" viewBox="0 0 24 24" fill="none" xmlns="http://www.w3.org/2000/svg">
<g clip-path="url(#clip0)">
<path fill-rule="evenodd" clip-rule="evenodd" d="M5.87252 3.55867C7.45055 2.97513 9.16058 2.8456 10.8085 3.18481C12.4576 3.52424 13.9783 4.3194 15.198 5.47994C16.2277 6.45975 17.008 7.66682 17.4793 9H18C19.5913 9 21.1174 9.63214 22.2427 10.7574C23.3679 11.8826 24 13.4087 24 15C24 16.5913 23.3679 18.1174 22.2427 19.2426C21.1174 20.3679 19.5913 21 18 21H9.00075C7.31716 21.0013 5.66698 20.5303 4.2377 19.6405C2.80843 18.7508 1.65738 17.478 0.915348 15.9667C0.38411 14.8848 0.0777622 13.7117 0.00894757 12.5179L4.65661e-10 12.5L0.0073204 12.4888C-0.0179297 12.0247 -0.00727721 11.5575 0.0400205 11.0914C0.209989 9.41641 0.846372 7.82268 1.87686 6.4913C2.90735 5.15993 4.29061 4.14429 5.86948 3.55979C5.8705 3.55942 5.87151 3.55904 5.87252 3.55867ZM6.56383 5.43539C6.45131 5.47705 6.34006 5.52152 6.23018 5.56874C5.27711 5.97832 4.42722 6.59455 3.74191 7.37235C3.64401 7.48347 3.54946 7.59788 3.45846 7.71546C2.71735 8.67296 2.23832 9.80493 2.06584 11C2.05178 11.0974 2.03977 11.1952 2.02981 11.2933C1.91413 12.4332 2.08026 13.5815 2.51024 14.6382C2.57166 14.7892 2.63847 14.9383 2.71062 15.0852C3.21561 16.1137 3.96417 17.0002 4.88814 17.6694C5.02014 17.765 5.15571 17.8561 5.29467 17.9426C6.30446 18.5712 7.45603 18.9311 8.64006 18.991C8.75204 18.9967 8.8643 18.9997 8.97677 19C8.98427 19 8.99176 19 8.99926 19C8.99977 19 9.00027 19 9.00078 19H18C19.0609 19 20.0783 18.5786 20.8284 17.8284C21.5786 17.0783 22 16.0609 22 15C22 13.9391 21.5786 12.9217 20.8284 12.1716C20.0783 11.4214 19.0609 11 18 11H16.74C16.284 11 15.8858 10.6915 15.7718 10.25C15.4444 8.98212 14.768 7.83149 13.8193 6.92885C12.8707 6.0262 11.6879 5.40774 10.4053 5.14374C9.12275 4.87974 7.79184 4.98079 6.56383 5.43539C6.56383 5.43539 6.56383 5.43539 6.56383 5.43539Z" fill="black"/>
</g>
<defs>
<clipPath id="clip0">
<rect width="24" height="24" fill="white"/>
</clipPath>
</defs>
</svg>
