<svg width="24" height="24" viewBox="0 0 24 24" fill="none" xmlns="http://www.w3.org/2000/svg">
<path d="M10 7.01547C10.3276 7.00526 10.6613 7 11 7C15.4183 7 19 7.89543 19 9C19 10.1046 15.4183 11 11 11C6.58172 11 3 10.1046 3 9C3 8.6425 3.3752 8.3069 4.03254 8.01648" stroke="black" stroke-width="2" stroke-linecap="round" stroke-linejoin="round"/>
<path d="M3 9V18.3431C3 19.404 3.4406 20.4227 4.40904 20.8558C5.62353 21.3989 7.71067 22 11 22C14.2893 22 16.3765 21.3989 17.591 20.8558C18.5594 20.4227 19 19.404 19 18.3431V9" stroke="black" stroke-width="2" stroke-linecap="round" stroke-linejoin="round"/>
<path d="M19 10V10C20.6569 10 22 11.3431 22 13V13C22 14.6569 20.6569 16 19 16V16" stroke="black" stroke-width="2" stroke-linecap="round" stroke-linejoin="round"/>
<path d="M7 3V7" stroke="black" stroke-width="2" stroke-linecap="round" stroke-linejoin="round"/>
<path d="M11 2V4" stroke="black" stroke-width="2" stroke-linecap="round" stroke-linejoin="round"/>
<path d="M15 4L15 7" stroke="black" stroke-width="2" stroke-linecap="round" stroke-linejoin="round"/>
</svg>
