<svg width="24" height="24" viewBox="0 0 24 24" fill="none" xmlns="http://www.w3.org/2000/svg">
<ellipse cx="12" cy="6" rx="8" ry="3" stroke="black" stroke-width="2" stroke-linecap="round" stroke-linejoin="round"/>
<path d="M6.03705 12C4.77028 12.5308 4 13.2316 4 14C4 15.6569 7.58172 17 12 17C16.4183 17 20 15.6569 20 14C20 13.2316 19.2297 12.5308 17.963 12" stroke="black" stroke-width="2" stroke-linecap="round" stroke-linejoin="round"/>
<path d="M4 6V10C4 11.6569 7.58172 13 12 13C16.4183 13 20 11.6569 20 10V6" stroke="black" stroke-width="2" stroke-linecap="round" stroke-linejoin="round"/>
<path d="M4 14V18C4 19.6569 7.58172 21 12 21C16.4183 21 20 19.6569 20 18V14" stroke="black" stroke-width="2" stroke-linecap="round" stroke-linejoin="round"/>
</svg>
