<svg width="24" height="24" viewBox="0 0 24 24" fill="none" xmlns="http://www.w3.org/2000/svg">
<path d="M16 18V20C16 21.1046 15.1046 22 14 22H6C4.89543 22 4 21.1046 4 20V9C4 7.89543 4.89543 7 6 7H8M13.5 6V10H16M14.6847 2L10 2C8.89543 2 8 2.89543 8 4V16C8 17.1046 8.89543 18 10 18L18 18C19.1046 18 20 17.1046 20 16V7.24162C20 6.7034 19.7831 6.18789 19.3982 5.81161L16.0829 2.56999C15.7092 2.2046 15.2074 2 14.6847 2Z" stroke="black" stroke-width="2" stroke-linecap="round" stroke-linejoin="round"/>
</svg>
