<svg width="24" height="24" viewBox="0 0 24 24" fill="none" xmlns="http://www.w3.org/2000/svg">
<path d="M16.4745 5.40801L18.5917 7.52524M17.8358 3.54289L12.1086 9.27005C11.8131 9.56562 11.6116 9.94206 11.5296 10.3519L11 13L13.6481 12.4704C14.0579 12.3884 14.4344 12.1869 14.7299 11.8914L20.4571 6.16423C21.181 5.44037 21.181 4.26676 20.4571 3.5429C19.7332 2.81904 18.5596 2.81903 17.8358 3.54289Z" stroke="black" stroke-width="2" stroke-linecap="round" stroke-linejoin="round"/>
<path d="M19 15V18C19 19.1046 18.1046 20 17 20H6C4.89543 20 4 19.1046 4 18V7C4 5.89543 4.89543 5 6 5H9" stroke="black" stroke-width="2" stroke-linecap="round" stroke-linejoin="round"/>
</svg>
