<svg width="24" height="24" viewBox="0 0 24 24" fill="none" xmlns="http://www.w3.org/2000/svg">
<path d="M6.87317 17.129C5.02774 15.8181 3.56791 14.1146 2.74375 13.039C2.26944 12.4199 2.26856 11.5813 2.74283 10.9622C4.23598 9.01321 7.81823 5 12 5C13.8755 5 15.6305 5.80728 17.1305 6.87355" stroke="black" stroke-width="2" stroke-linecap="round" stroke-linejoin="round"/>
<path d="M14.1292 9.88664C13.5857 9.33907 12.8325 9 12 9C10.3431 9 9 10.3431 9 12C9 12.8324 9.339 13.5856 9.88646 14.1291" stroke="black" stroke-width="2" stroke-linecap="round" stroke-linejoin="round"/>
<path d="M4 20L19.9999 4" stroke="black" stroke-width="2" stroke-linecap="round" stroke-linejoin="round"/>
<path d="M10 18.7037C10.6462 18.8923 11.3151 19 12 19C16.1818 19 19.764 14.9868 21.2572 13.0378C21.7314 12.4187 21.7302 11.5795 21.2558 10.9605C20.843 10.4217 20.2707 9.72547 19.5704 9" stroke="black" stroke-width="2" stroke-linecap="round" stroke-linejoin="round"/>
</svg>
