<svg width="24" height="24" viewBox="0 0 24 24" fill="none" xmlns="http://www.w3.org/2000/svg">
<path d="M12 22C7.58172 22 4 19.4183 4 15V14.9123C4 12.7937 5.18895 11.0994 7 10C8.73244 8.94833 9.75653 7.01036 9.5 5L9 2L10.854 2.79459C14.1934 4.22574 16.9752 6.70655 18.7777 9.86098C19.5787 11.2627 20 12.8492 20 14.4636V15C20 16.5624 19.5521 17.8952 18.7777 18.9653" stroke="black" stroke-width="2" stroke-linecap="round" stroke-linejoin="round"/>
<path d="M12 22C10.3431 22 9 20.5673 9 18.8C9 17.3992 10.0162 16.2789 10.9098 15.2523L12 14L13.0902 15.2523C13.9838 16.2789 15 17.3992 15 18.8C15 20.5673 13.6569 22 12 22Z" stroke="black" stroke-width="2" stroke-linecap="round" stroke-linejoin="round"/>
</svg>
