<svg width="24" height="24" viewBox="0 0 24 24" fill="none" xmlns="http://www.w3.org/2000/svg">
<path d="M19 5V3.72076C19 3.29033 18.7247 2.91028 18.3084 2.80082C17.1991 2.50913 14.8541 2 12 2C9.14588 2 6.80088 2.50913 5.69157 2.80082C5.27529 2.91028 5 3.29033 5 3.72076V5C5 6.6356 7 9 7.99951 10L8.84711 20.1662C8.93353 21.2027 9.80005 22 10.8402 22H13.1597C14.1999 22 15.0664 21.2027 15.1528 20.1661L16 10C17 9 19 6.63574 19 5Z" stroke="black" stroke-width="2" stroke-linecap="round" stroke-linejoin="round"/>
<path d="M12 11L12 13" stroke="black" stroke-width="2" stroke-linecap="round" stroke-linejoin="round"/>
<ellipse cx="12" cy="4" rx="7" ry="2" stroke="black" stroke-width="2" stroke-linecap="round" stroke-linejoin="round"/>
</svg>
