<svg width="24" height="24" viewBox="0 0 24 24" fill="none" xmlns="http://www.w3.org/2000/svg">
<path d="M22 19V9C22 7.89543 21.1046 7 20 7H13.2361C12.4785 7 11.786 6.572 11.4472 5.89443L10.5528 4.10557C10.214 3.428 9.52148 3 8.76393 3H4C2.89543 3 2 3.89543 2 5V19C2 20.1046 2.89543 21 4 21H20C21.1046 21 22 20.1046 22 19Z" stroke="black" stroke-width="2" stroke-linecap="round" stroke-linejoin="round"/>
<path d="M12 11L12 14M12 14L12 17M12 14L15 14M12 14L9 14" stroke="black" stroke-width="2" stroke-linecap="round"/>
</svg>
