<svg width="24" height="24" viewBox="0 0 24 24" fill="none" xmlns="http://www.w3.org/2000/svg">
<path d="M12 0C5.32267 0 0 5.31733 0 12C0 18.6827 5.31733 24 12 24C18.6827 24 24 18.6773 24 12C24 5.32267 18.6827 0 12 0ZM2.608 12.1013L11.8987 21.3867C6.784 21.392 2.608 17.216 2.608 12.1013ZM14.0853 21.184L2.82133 9.90933C3.76 5.73333 7.51467 2.60267 12 2.60267C15.008 2.61333 17.8347 4.04267 19.616 6.464L18.2613 7.61067C16.8267 5.50933 14.4427 4.256 11.8987 4.26667C8.64533 4.24533 5.74933 6.30933 4.69333 9.38133L14.5067 19.2C16.9067 18.3627 18.784 16.2773 19.3067 13.7707H15.2373V12H21.392C21.392 16.4853 18.2613 20.2453 14.0853 21.184Z" fill="black"/>
</svg>
