<svg width="24" height="24" viewBox="0 0 24 24" fill="none" xmlns="http://www.w3.org/2000/svg">
<path d="M14 3.2686C14 2.56797 13.432 2 12.7314 2H11.2686C10.568 2 10 2.56797 10 3.2686V3.2686C10 3.84745 9.60365 4.34302 9.0652 4.55546C8.97998 4.58908 8.89547 4.62413 8.81172 4.66056C8.2807 4.89156 7.64975 4.82144 7.24027 4.41197V4.41197C6.74474 3.91643 5.94132 3.91643 5.44579 4.41197L4.41187 5.44588C3.91632 5.94143 3.91632 6.74487 4.41187 7.24042V7.24042C4.82135 7.6499 4.89147 8.28086 4.66049 8.81189C4.62408 8.89559 4.58906 8.98004 4.55546 9.0652C4.34302 9.60365 3.84744 10 3.2686 10V10C2.56797 10 2 10.568 2 11.2686V12.7314C2 13.432 2.56797 14 3.2686 14V14C3.84744 14 4.34302 14.3963 4.55546 14.9348C4.58906 15.02 4.62408 15.1044 4.66049 15.1881C4.89148 15.7191 4.82135 16.3501 4.41187 16.7596V16.7596C3.91632 17.2551 3.91632 18.0586 4.41187 18.5541L5.44578 19.588C5.94132 20.0836 6.74474 20.0836 7.24028 19.588V19.588C7.64975 19.1786 8.28071 19.1084 8.81173 19.3394C8.89548 19.3759 8.97998 19.4109 9.0652 19.4445C9.60365 19.657 10 20.1526 10 20.7314V20.7314C10 21.432 10.568 22 11.2686 22H12.7314C13.432 22 14 21.432 14 20.7314V20.7314C14 20.1526 14.3963 19.657 14.9348 19.4445C15.02 19.4109 15.1045 19.3759 15.1882 19.3395C15.7192 19.1085 16.3501 19.1786 16.7595 19.5881V19.5881C17.255 20.0836 18.0584 20.0836 18.5539 19.5881L19.588 18.554C20.0835 18.0585 20.0835 17.2552 19.588 16.7597V16.7597C19.1785 16.3502 19.1084 15.7193 19.3394 15.1883C19.3759 15.1046 19.4109 15.02 19.4445 14.9348C19.657 14.3964 20.1526 14 20.7314 14V14C21.432 14 22 13.432 22 12.7314V11.2686C22 10.568 21.432 10 20.7314 10V10C20.1526 10 19.657 9.60365 19.4445 9.0652C19.4109 8.97996 19.3759 8.89544 19.3394 8.81166C19.1084 8.28068 19.1785 7.64977 19.588 7.24033V7.24033C20.0835 6.74483 20.0835 5.94147 19.588 5.44597L18.5539 4.41193C18.0584 3.91642 17.255 3.91642 16.7595 4.41193V4.41193C16.3501 4.82138 15.7192 4.8915 15.1882 4.66052C15.1045 4.6241 15.02 4.58907 14.9348 4.55546C14.3963 4.34302 14 3.84744 14 3.2686V3.2686Z" stroke="black" stroke-width="2"/>
<path d="M16 12C16 14.2091 14.2091 16 12 16C9.79086 16 8 14.2091 8 12C8 9.79086 9.79086 8 12 8C14.2091 8 16 9.79086 16 12Z" stroke="black" stroke-width="2"/>
</svg>
