<svg width="24" height="24" viewBox="0 0 24 24" fill="none" xmlns="http://www.w3.org/2000/svg">
<path d="M22.749 9.76874L22.7177 9.68884L19.691 1.78969C19.6294 1.63487 19.5204 1.50353 19.3795 1.41453C19.2386 1.32704 19.0742 1.2849 18.9085 1.2938C18.7429 1.3027 18.5839 1.36222 18.4532 1.46432C18.3239 1.56934 18.2301 1.71166 18.1846 1.8719L16.1409 8.12453H7.86539L5.82171 1.8719C5.77739 1.71079 5.68339 1.56776 5.55308 1.46316C5.42233 1.36106 5.2634 1.30155 5.09775 1.29264C4.9321 1.28374 4.7677 1.32588 4.62676 1.41337C4.48623 1.50273 4.37728 1.63395 4.31529 1.78853L1.28276 9.68421L1.25266 9.76411C0.816944 10.9026 0.763163 12.1518 1.09942 13.3235C1.43568 14.4952 2.14375 15.5258 3.11687 16.2599L3.12729 16.268L3.15508 16.2877L7.76581 19.7405L10.0469 21.4669L11.4363 22.516C11.5989 22.6394 11.7973 22.7062 12.0014 22.7062C12.2055 22.7062 12.4039 22.6394 12.5664 22.516L13.9559 21.4669L16.237 19.7405L20.8755 16.2668L20.8871 16.2576C21.858 15.5233 22.5644 14.4938 22.9002 13.3237C23.2359 12.1536 23.1829 10.9061 22.749 9.76874Z" fill="#171321"/>
</svg>
