<svg width="24" height="24" viewBox="0 0 24 24" fill="none" xmlns="http://www.w3.org/2000/svg">
<path d="M20 16V8.5C20 7.67157 19.3587 7 18.5195 7C18 7 17 7.3 17 8.5V5.5C17 4.67157 16.3588 4 15.5195 4C15.013 4 14 4.3 14 5.5V3.5C14 2.67157 13.3588 2 12.5195 2C11.6803 2 11 2.67157 11 3.5V5.5C11 4.3 10.0065 4 9.5 4C8.66076 4 8 4.69115 8 5.51957L8.00004 14" stroke="black" stroke-width="2" stroke-linecap="round" stroke-linejoin="round"/>
<path d="M11 5.5V11" stroke="black" stroke-width="2" stroke-linecap="round" stroke-linejoin="round"/>
<path d="M14 5.5V11" stroke="black" stroke-width="2" stroke-linecap="round" stroke-linejoin="round"/>
<path d="M17 5.5V11" stroke="black" stroke-width="2" stroke-linecap="round" stroke-linejoin="round"/>
<path d="M20 16C20 20 16.866 22 13 22C9.13401 22 7.80428 21 4.80428 16L3.23281 13.3949C2.69684 12.5274 3.1259 11.4011 4.11416 11.0812C4.77908 10.866 5.51122 11.0881 5.93175 11.6326L8 14.0325" stroke="black" stroke-width="2" stroke-linecap="round" stroke-linejoin="round"/>
</svg>
