<svg width="24" height="24" viewBox="0 0 24 24" fill="none" xmlns="http://www.w3.org/2000/svg">
<path d="M18 12.0037L18.1318 10.9492C18.5928 7.25921 15.7169 4 12 4C8.28306 4 5.40721 7.25921 5.86824 10.9492L6 12.0037M18 12.0037L19.8923 12.1423C21.1405 12.2188 22.0817 13.1681 21.9944 14.2626L21.7573 17.2352C21.6264 18.877 20 20 18.1301 20H17L18 12.0037ZM6 12.0037L4.1077 12.1423C2.85946 12.2188 1.91833 13.1681 2.00561 14.2626L2.24268 17.2352C2.37361 18.877 4 20 5.86994 20H7L6 12.0037Z" stroke="black" stroke-width="2" stroke-linecap="round" stroke-linejoin="round"/>
</svg>
