<svg width="24" height="24" viewBox="0 0 24 24" fill="none" xmlns="http://www.w3.org/2000/svg">
<g clip-path="url(#clip0_950_640)">
<path fill-rule="evenodd" clip-rule="evenodd" d="M0 0H24V24H0V0ZM18.3467 20.1196C17.2343 20.1196 16.6053 19.5394 16.1219 18.7501L14.2891 19.8149C14.9512 21.123 16.3044 22.1211 18.3989 22.1211C20.5409 22.1211 22.136 21.0088 22.136 18.9783C22.136 17.0949 21.0541 16.2571 19.1379 15.4354L18.5741 15.1939C17.6065 14.7749 17.1874 14.501 17.1874 13.8244C17.1874 13.277 17.6061 12.8579 18.2667 12.8579C18.9143 12.8579 19.3314 13.131 19.7181 13.8244L21.4743 12.6968C20.7314 11.3901 19.7006 10.891 18.2667 10.891C16.2526 10.891 14.9638 12.1787 14.9638 13.8701C14.9638 15.7063 16.0449 16.5749 17.6724 17.2682L18.2362 17.5101C19.2648 17.96 19.8781 18.2339 19.8781 19.0072C19.8781 19.6526 19.2811 20.1196 18.3467 20.1196ZM9.60647 20.1055C8.83161 20.1055 8.50933 19.5741 8.15504 18.9455L6.31923 20.057C6.85104 21.1825 7.89676 22.117 9.70247 22.117C11.7009 22.117 13.0701 21.0541 13.0701 18.7189V11.0198H10.8149V18.6884C10.8149 19.8156 10.3474 20.1055 9.60647 20.1055Z" fill="black"/>
</g>
<defs>
<clipPath id="clip0_950_640">
<rect width="24" height="24" fill="white"/>
</clipPath>
</defs>
</svg>
