<svg width="24" height="24" viewBox="0 0 24 24" fill="none" xmlns="http://www.w3.org/2000/svg">
<path d="M13.3014 5.60128C12.6728 4.07279 12.7618 2.35417 13.6677 0.970296L14.3458 0C13.0925 2.35016 14.2856 5.23592 16.2063 6.74853C16.5431 7.01263 16.9064 7.24338 17.2875 7.43339C17.4881 7.53342 17.6946 7.6218 17.9042 7.69934C18.0676 7.75941 18.2539 7.82292 18.4235 7.86579C20.5698 8.40653 22.3191 8.03311 23.36 6.47739C23.3281 6.52513 23.2873 6.60079 23.2351 6.69734C22.7712 7.55712 21.4131 10.0737 17.4743 9.28377C17.4 9.26933 17.3279 9.24492 17.256 9.22058C17.2346 9.21334 17.2132 9.2061 17.1918 9.19913C17.1764 9.1944 17.1613 9.18931 17.1461 9.18423C17.1324 9.17962 17.1187 9.17502 17.105 9.17072C17.0973 9.16803 17.0896 9.16534 17.082 9.16266C17.0235 9.1422 16.9658 9.12195 16.908 9.09965C15.3226 8.4963 13.9643 7.22355 13.3014 5.60128Z" fill="black"/>
<path d="M8.12018 2.96584C6.58348 5.2613 6.66687 8.33408 7.86562 10.7618C8.06665 11.1688 8.29258 11.5635 8.54527 11.9395C8.57249 11.98 8.60006 12.0214 8.62802 12.0634C8.83659 12.3765 9.06687 12.7222 9.33634 12.9648C9.44713 13.0915 9.56289 13.2149 9.68114 13.3363C9.70346 13.36 9.72615 13.3829 9.74893 13.406L9.77201 13.4294C9.88684 13.545 10.0035 13.6587 10.1243 13.7692C10.1268 13.7712 10.1292 13.7734 10.1315 13.7757C10.1338 13.778 10.1361 13.7802 10.1386 13.7821L10.14 13.7834C10.1408 13.784 10.1415 13.7846 10.142 13.7854C10.2755 13.9069 10.4133 14.0238 10.5534 14.1388C10.5713 14.1529 10.5891 14.1675 10.6069 14.1821C10.6202 14.1929 10.6334 14.2037 10.6468 14.2144C10.7871 14.3262 10.9303 14.436 11.0771 14.5407L11.0828 14.5451L11.0896 14.5504C11.1369 14.5843 11.1848 14.6166 11.2329 14.6489L11.286 14.6847C11.2978 14.6928 11.3095 14.701 11.3211 14.7092C11.3402 14.7228 11.3593 14.7362 11.379 14.7487C11.4839 14.8185 11.59 14.8863 11.698 14.9516C11.7078 14.9578 11.7175 14.9635 11.7271 14.9692C11.7325 14.9723 11.7378 14.9755 11.7431 14.9787C11.8362 15.0343 11.9305 15.0892 12.0251 15.1421C12.0479 15.1556 12.0711 15.1678 12.0943 15.18L12.1253 15.1964L12.1643 15.2177C12.2167 15.2462 12.2693 15.275 12.3226 15.3024C12.3325 15.3075 12.3428 15.3121 12.3524 15.3166C12.4878 15.3857 12.6244 15.4523 12.7639 15.5156C12.7831 15.5244 12.8028 15.5326 12.8224 15.5407L12.8547 15.5544C12.9661 15.6035 13.0788 15.6513 13.1921 15.6965C13.2299 15.7113 13.2681 15.7257 13.3062 15.74L13.3365 15.7514C13.4392 15.7908 13.5422 15.827 13.6461 15.8632L13.6985 15.8807C13.7277 15.8906 13.7567 15.9004 13.7861 15.9097C13.8249 15.9222 13.8635 15.9356 13.9021 15.949C14.011 15.9867 14.1203 16.0245 14.234 16.0441C22.1683 17.4085 24 11.0675 24 11.0675C22.3488 13.5361 19.1511 14.7138 15.7388 13.7945C15.5873 13.7531 15.4379 13.7079 15.2895 13.6594C15.2489 13.6467 15.209 13.633 15.1688 13.6192L15.1544 13.6142C15.0489 13.5787 14.944 13.5412 14.8401 13.5018L14.8368 13.5005C14.7903 13.4829 14.7437 13.4652 14.6982 13.4469C14.5843 13.4017 14.4716 13.3545 14.3599 13.3054C14.3523 13.302 14.3447 13.2987 14.3371 13.2955C14.3331 13.2937 14.3291 13.292 14.325 13.2903C14.3061 13.2822 14.2872 13.2742 14.2687 13.2653C14.1287 13.202 13.9908 13.1355 13.8548 13.0657C13.7987 13.0372 13.7433 13.0075 13.6882 12.9778L13.6473 12.9559L13.5275 12.8919C13.4391 12.8422 13.3513 12.7905 13.2648 12.7382C13.2561 12.733 13.2473 12.7279 13.2384 12.7228C13.2262 12.7158 13.214 12.7088 13.2019 12.7013C13.0946 12.6361 12.9888 12.5689 12.8839 12.4998C12.8656 12.4877 12.8478 12.4751 12.8299 12.4624C12.816 12.4526 12.8021 12.4428 12.788 12.4332C12.7189 12.3867 12.6499 12.3395 12.582 12.2917C12.4357 12.1871 12.2935 12.0772 12.1532 11.9661L12.1179 11.9374C12.0973 11.9207 12.0769 11.9041 12.0567 11.8873C10.5631 10.6631 9.37914 8.99041 8.81624 7.09356C8.22632 5.12632 8.35353 2.918 9.37557 1.12595L8.12018 2.96584Z" fill="black"/>
<path d="M1.52413 5.63675C-0.600755 8.80698 -0.336235 12.9315 1.28699 16.2999C1.31793 16.3647 1.35007 16.4286 1.38212 16.4923L1.40587 16.5396C1.4158 16.5592 1.4255 16.579 1.4352 16.5988C1.45039 16.6299 1.46567 16.6611 1.4818 16.6914C1.49251 16.7127 1.50417 16.7337 1.51565 16.7543L1.52911 16.7786C1.55224 16.8234 1.57582 16.8664 1.59965 16.9099L1.61375 16.9356C1.66417 17.028 1.71583 17.1198 1.76873 17.2115L1.78635 17.2419C1.80963 17.2821 1.83303 17.3225 1.85711 17.3627C1.91562 17.4609 1.97568 17.5578 2.03698 17.6547L2.05504 17.6841C2.07437 17.7156 2.09359 17.7469 2.11354 17.7775C2.19818 17.9086 2.2847 18.0391 2.374 18.1677L2.37489 18.169C2.37687 18.172 2.37902 18.1752 2.38146 18.178C2.38899 18.1891 2.39697 18.2 2.40495 18.211C2.41181 18.2203 2.41874 18.2298 2.42534 18.2394C2.50252 18.3498 2.58219 18.459 2.66279 18.5669C2.69236 18.6063 2.72222 18.6457 2.7521 18.6852C2.82399 18.7788 2.89712 18.8719 2.9715 18.9649C2.99919 18.9998 3.0272 19.0347 3.05521 19.0689C3.1551 19.191 3.25686 19.3125 3.3608 19.4313L3.36701 19.4378L3.3719 19.4432C3.3743 19.4458 3.37657 19.4482 3.37883 19.4513C3.48028 19.5663 3.58422 19.6788 3.68942 19.7912C3.72209 19.8261 3.75539 19.861 3.789 19.8952C3.87053 19.9805 3.95331 20.0645 4.03703 20.1478L4.0673 20.178C4.09102 20.2017 4.11467 20.2253 4.13848 20.248C4.2502 20.3571 4.36316 20.4644 4.47831 20.569C4.48019 20.5709 4.48173 20.5724 4.4836 20.5736C4.49456 20.5837 4.50572 20.5934 4.5168 20.6031C4.52546 20.6106 4.5343 20.6183 4.54273 20.6259C4.64418 20.717 4.7475 20.8074 4.85143 20.8966C4.87523 20.9166 4.89923 20.9364 4.92325 20.9562L4.97933 21.0026C5.06429 21.073 5.15018 21.1428 5.23669 21.2113C5.28231 21.2473 5.3283 21.2837 5.37424 21.3198C5.46978 21.3928 5.56594 21.4645 5.66303 21.5349L5.67854 21.5465C5.70844 21.5689 5.73805 21.591 5.76821 21.6125L5.79715 21.6338C5.88482 21.6965 5.97447 21.7569 6.06395 21.8172L6.07755 21.8263C6.09323 21.8371 6.10886 21.848 6.12449 21.859C6.14915 21.8763 6.17401 21.8937 6.19892 21.9103C6.34332 22.0053 6.4899 22.0989 6.63802 22.1894C6.66017 22.2026 6.68251 22.2156 6.70489 22.2286L6.75939 22.2605C6.86831 22.3257 6.97785 22.3897 7.08894 22.4523C7.13143 22.4761 7.17469 22.4989 7.21786 22.5216L7.2713 22.5499L7.33004 22.582C7.38874 22.6141 7.44744 22.6462 7.50719 22.6772C7.51521 22.6812 7.52336 22.6852 7.5315 22.6893C7.54166 22.6943 7.5518 22.6993 7.56165 22.7043L7.59564 22.7212C7.61648 22.7315 7.63737 22.7419 7.65812 22.7528C7.78167 22.8141 7.90615 22.8742 8.03189 22.9324L8.07892 22.9542L8.11093 22.9692C8.25501 23.0344 8.40033 23.0971 8.54692 23.1572C8.58209 23.172 8.61756 23.1863 8.65304 23.2005C8.78872 23.2548 8.92628 23.3084 9.06445 23.3588L9.07309 23.3619C9.08748 23.3672 9.10158 23.3721 9.11611 23.3775C9.26767 23.4324 9.42079 23.4834 9.57482 23.5332C9.59246 23.5385 9.61017 23.544 9.62792 23.5496C9.64712 23.5557 9.66636 23.5617 9.6856 23.5674C9.72567 23.58 9.76561 23.5931 9.80557 23.6063C9.92206 23.6447 10.0388 23.6832 10.1592 23.7063C20.4357 25.6516 23.4207 17.296 23.4207 17.296C20.9137 20.6864 16.4635 21.5806 12.2472 20.585C12.1211 20.5554 11.9979 20.517 11.8749 20.4786C11.8421 20.4683 11.8094 20.4581 11.7766 20.4481C11.7371 20.4358 11.6982 20.4235 11.6593 20.4112C11.5071 20.3628 11.3562 20.3118 11.2062 20.2581L11.144 20.2349C11.0095 20.1858 10.8766 20.1341 10.7444 20.0811L10.6324 20.0352C10.4873 19.9758 10.3433 19.9138 10.201 19.8492C10.1856 19.8424 10.1706 19.8354 10.1555 19.8284C10.142 19.8221 10.1285 19.8159 10.1148 19.8098C9.99252 19.7523 9.87146 19.6941 9.75103 19.634L9.70967 19.6135C9.68853 19.6031 9.6673 19.5926 9.64584 19.5817C9.57413 19.5454 9.503 19.5072 9.43212 19.4692L9.3644 19.433C9.34189 19.4207 9.31925 19.4086 9.29661 19.3966C9.25641 19.3751 9.21612 19.3537 9.17651 19.3308C9.06255 19.2676 8.95064 19.2017 8.83923 19.1345L8.79553 19.1094C8.77213 19.096 8.74865 19.0826 8.72528 19.0686C8.57716 18.9781 8.43083 18.8844 8.28602 18.7894C8.26028 18.7724 8.23496 18.7546 8.20965 18.7368L8.16748 18.7074C8.06244 18.637 7.95792 18.5653 7.85493 18.4917C7.83746 18.4794 7.82032 18.4667 7.80324 18.454C7.78693 18.4418 7.77067 18.4298 7.75423 18.4181C7.6548 18.3451 7.5564 18.2713 7.45876 18.1964C7.4144 18.1622 7.37081 18.1278 7.32772 18.0937C7.23824 18.0225 7.14927 17.9508 7.06106 17.8772C7.02123 17.8443 6.98139 17.8113 6.94218 17.7784C6.83015 17.6828 6.71936 17.5865 6.61013 17.4877C6.60382 17.482 6.59722 17.4763 6.5905 17.4706L6.57372 17.456C6.45546 17.3481 6.33939 17.2376 6.22456 17.1265C6.19126 17.0936 6.15889 17.0613 6.12622 17.0283C6.04126 16.9443 5.95755 16.8597 5.87539 16.7731L5.84233 16.739C5.82042 16.7164 5.7986 16.6938 5.77705 16.671C5.67249 16.5599 5.56979 16.4475 5.46927 16.3332C5.46678 16.3303 5.46422 16.3275 5.46165 16.3248C5.45986 16.3228 5.45806 16.3209 5.45629 16.3189C5.45554 16.3181 5.45478 16.3172 5.45404 16.3164C5.3476 16.1956 5.24367 16.0722 5.1419 15.9475L5.06005 15.8467C4.98412 15.7517 4.90881 15.6555 4.83536 15.5585C4.80783 15.5236 4.7803 15.4879 4.75302 15.4519C4.66456 15.3328 4.57813 15.214 4.49349 15.0933C2.15261 11.7789 1.31165 7.20742 3.18262 3.45315L1.52413 5.63675Z" fill="black"/>
</svg>
