<svg width="24" height="24" viewBox="0 0 24 24" fill="none" xmlns="http://www.w3.org/2000/svg">
<path d="M14 19C17.7712 19 19.6569 19 20.8284 17.8284C22 16.6569 22 14.7712 22 11C22 7.22876 22 5.34315 20.8284 4.17157C19.6569 3 17.7712 3 14 3H10C6.22876 3 4.34315 3 3.17157 4.17157C2 5.34315 2 7.22876 2 11C2 14.7712 2 16.6569 3.17157 17.8284C3.82475 18.4816 4.69989 18.7706 6 18.8985" stroke="black" stroke-width="2" stroke-linecap="round" stroke-linejoin="round"/>
<path d="M14 19C12.7635 19 11.4022 19.4992 10.1586 20.145C8.16119 21.1821 7.16249 21.7007 6.67035 21.3703C6.1782 21.0398 6.27135 20.0151 6.45766 17.9657L6.5 17.5" stroke="black" stroke-width="2" stroke-linecap="round"/>
<path d="M5.5 13.5L6.5 11.5M6.5 11.5L7.60557 9.28885C7.9741 8.55181 9.0259 8.55181 9.39443 9.28885L10.5 11.5M6.5 11.5H10.5M10.5 11.5L11.5 13.5M12.5 7.5H14.4817V8.99999C14.4817 9.49999 13.9862 10.5 12.9954 10.5M16.9587 7.50003V9.50002M16.9587 9.50002V13.5M16.9587 9.50002H18.5" stroke="black" stroke-width="2" stroke-linecap="round" stroke-linejoin="round"/>
</svg>
