<svg width="24" height="24" viewBox="0 0 24 24" fill="none" xmlns="http://www.w3.org/2000/svg">
<path fill-rule="evenodd" clip-rule="evenodd" d="M9.42857 8.96884H13.1429V10.8193C13.6783 9.75524 15.0503 8.79887 17.1114 8.79887C21.0623 8.79887 22 10.9167 22 14.8028V22H18V15.6878C18 13.4748 17.4646 12.2266 16.1029 12.2266C14.2143 12.2266 13.4286 13.5722 13.4286 15.6878V22H9.42857V8.96884ZM2.57143 21.83H6.57143V8.79887H2.57143V21.83ZM7.14286 4.54958C7.14286 4.88439 7.07635 5.21593 6.94712 5.52526C6.81789 5.83458 6.62848 6.11565 6.3897 6.3524C6.15092 6.58915 5.86745 6.77695 5.55547 6.90508C5.24349 7.0332 4.90911 7.09915 4.57143 7.09915C4.23374 7.09915 3.89937 7.0332 3.58739 6.90508C3.27541 6.77695 2.99193 6.58915 2.75315 6.3524C2.51437 6.11565 2.32496 5.83458 2.19574 5.52526C2.06651 5.21593 2 4.88439 2 4.54958C2 3.87339 2.27092 3.22489 2.75315 2.74675C3.23539 2.26862 3.88944 2 4.57143 2C5.25341 2 5.90747 2.26862 6.3897 2.74675C6.87194 3.22489 7.14286 3.87339 7.14286 4.54958Z" fill="black"/>
</svg>
