<svg width="24" height="24" viewBox="0 0 24 24" fill="none" xmlns="http://www.w3.org/2000/svg">
<path fill-rule="evenodd" clip-rule="evenodd" d="M1 2.83783C1 2.35041 1.19363 1.88295 1.53829 1.53829C1.88295 1.19363 2.35041 1 2.83783 1H21.1611C21.4025 1 21.6415 1.04754 21.8644 1.1399C22.0874 1.23226 22.29 1.36763 22.4607 1.53829C22.6313 1.70895 22.7667 1.91155 22.8591 2.13452C22.9514 2.3575 22.999 2.59648 22.999 2.83783V21.1611C22.999 21.4025 22.9514 21.6415 22.8591 21.8644C22.7667 22.0874 22.6313 22.29 22.4607 22.4607C22.29 22.6313 22.0874 22.7667 21.8644 22.8591C21.6415 22.9514 21.4025 22.999 21.1611 22.999H2.83783C2.35041 22.999 1.88295 22.8053 1.53829 22.4607C1.19363 22.116 1 21.6486 1 21.1611V2.83783ZM9.70792 9.38711H12.687V10.884C13.1164 10.0232 14.2168 9.24961 15.8699 9.24961C19.0387 9.24961 19.7908 10.9628 19.7908 14.1063V19.9283H16.5826V14.8222C16.5826 13.0321 16.1532 12.0224 15.061 12.0224C13.5463 12.0224 12.9161 13.1109 12.9161 14.8222V19.9283H9.70792V9.38711ZM4.20818 19.7908H7.41637V9.24961H4.20818V19.7908ZM7.87468 5.81227C7.87468 6.08311 7.82133 6.3513 7.71769 6.60152C7.61404 6.85174 7.46212 7.0791 7.27061 7.27061C7.0791 7.46212 6.85174 7.61404 6.60152 7.71769C6.3513 7.82133 6.08311 7.87468 5.81227 7.87468C5.54144 7.87468 5.27325 7.82133 5.02303 7.71769C4.7728 7.61404 4.54545 7.46212 4.35393 7.27061C4.16242 7.0791 4.01051 6.85174 3.90686 6.60152C3.80322 6.3513 3.74987 6.08311 3.74987 5.81227C3.74987 5.26529 3.96716 4.74071 4.35393 4.35393C4.74071 3.96716 5.26529 3.74987 5.81227 3.74987C6.35926 3.74987 6.88384 3.96716 7.27061 4.35393C7.65739 4.74071 7.87468 5.26529 7.87468 5.81227Z" fill="black"/>
</svg>
