<svg width="24" height="24" viewBox="0 0 24 24" fill="none" xmlns="http://www.w3.org/2000/svg">
<path d="M21.9535 15.6948C22.1802 15.1541 21.5326 14.6947 20.9886 14.9346C19.905 15.4107 18.7307 15.6559 17.5432 15.6542C12.8932 15.6542 9.12394 11.9609 9.12394 7.40461C9.12394 5.80991 9.58571 4.32118 10.3849 3.05963C10.6996 2.56275 10.3208 1.87296 9.74373 2.02019C5.28802 3.15672 2 7.1254 2 11.8467C2 17.4545 6.63898 22 12.3621 22C16.6948 22 20.4063 19.3944 21.9535 15.6948Z" stroke="black" stroke-width="2"/>
<path d="M16.0124 2.11391C15.4235 1.72132 14.7213 2.42293 15.1138 3.01247L15.8141 4.06263C16.098 4.48834 16.2494 4.98854 16.2494 5.5002C16.2494 6.01185 16.098 6.51206 15.8141 6.93776L15.1138 7.98792C14.7213 8.57681 15.4235 9.27908 16.013 8.88583L17.0625 8.18616C17.4882 7.90232 17.9884 7.75085 18.5 7.75085C19.0116 7.75085 19.5118 7.90232 19.9375 8.18616L20.9876 8.88583C21.5765 9.27908 22.2787 8.57681 21.8855 7.98727L21.1859 6.93776C20.902 6.51206 20.7506 6.01185 20.7506 5.5002C20.7506 4.98854 20.902 4.48834 21.1859 4.06263L21.8862 3.01247C22.2787 2.42358 21.5765 1.72132 20.987 2.11456L19.9375 2.81423C19.5118 3.09807 19.0116 3.24954 18.5 3.24954C17.9884 3.24954 17.4882 3.09807 17.0625 2.81423L16.0124 2.11391Z" stroke="black" stroke-width="2"/>
</svg>
