<svg width="24" height="24" viewBox="0 0 24 24" fill="none" xmlns="http://www.w3.org/2000/svg">
<path d="M20.9582 15.3253C21.1622 14.8387 20.5793 14.4252 20.0897 14.6411C19.1145 15.0696 18.0576 15.2903 16.9888 15.2888C12.8038 15.2888 9.41155 11.9648 9.41155 7.86415C9.41155 6.42892 9.82714 5.08906 10.5464 3.95367C10.8297 3.50648 10.4887 2.88567 9.96935 3.01817C5.95922 4.04105 3 7.61286 3 11.862C3 16.909 7.17508 21 12.3259 21C16.2253 21 19.5657 18.655 20.9582 15.3253Z" stroke="black" stroke-width="2"/>
<path d="M15.6111 3.10252C15.0812 2.74918 14.4491 3.38064 14.8025 3.91122L15.4327 4.85637C15.6882 5.2395 15.8245 5.68969 15.8245 6.15018C15.8245 6.61067 15.6882 7.06085 15.4327 7.44399L14.8025 8.38913C14.4491 8.91913 15.0812 9.55117 15.6117 9.19725L16.5562 8.56755C16.9394 8.31209 17.3895 8.17577 17.85 8.17577C18.3105 8.17577 18.7606 8.31209 19.1438 8.56755L20.0889 9.19725C20.6189 9.55117 21.2509 8.91913 20.897 8.38855L20.2673 7.44399C20.0118 7.06085 19.8755 6.61067 19.8755 6.15018C19.8755 5.68969 20.0118 5.2395 20.2673 4.85637L20.8975 3.91122C21.2509 3.38122 20.6189 2.74918 20.0883 3.1031L19.1438 3.73281C18.7606 3.98826 18.3105 4.12458 17.85 4.12458C17.3895 4.12458 16.9394 3.98826 16.5562 3.73281L15.6111 3.10252Z" stroke="black" stroke-width="2"/>
</svg>
