<svg width="24" height="24" viewBox="0 0 24 24" fill="none" xmlns="http://www.w3.org/2000/svg">
<path d="M5 21H17C19.2091 21 21 19.2091 21 17V5C21 3.89543 20.1046 3 19 3H9C7.89543 3 7 3.89543 7 5V18C7 19.6569 6.65685 21 5 21Z" stroke="black" stroke-width="2" stroke-linecap="round" stroke-linejoin="round"/>
<path d="M3 10C3 8.89543 3.89543 8 5 8H7V18.5C7 19.8807 6.38071 21 5 21C3.61929 21 3 19.8807 3 18.5V10Z" stroke="black" stroke-width="2" stroke-linecap="round" stroke-linejoin="round"/>
<circle cx="12" cy="8" r="1" stroke="black" stroke-width="2" stroke-linecap="round"/>
<path d="M11 14H17" stroke="black" stroke-width="2" stroke-linecap="round"/>
<path d="M11 17H14" stroke="black" stroke-width="2" stroke-linecap="round"/>
</svg>
