<svg width="24" height="24" viewBox="0 0 24 24" fill="none" xmlns="http://www.w3.org/2000/svg">
<path d="M12 23.9555C11.6584 23.9555 11.3395 23.8674 11.0435 23.7134L8.01449 21.9748C7.55901 21.7327 7.78675 21.6447 7.9234 21.6006C8.5383 21.4026 8.65217 21.3586 9.28986 21.0064C9.35818 20.9624 9.44928 20.9844 9.5176 21.0284L11.8406 22.3709C11.9317 22.4149 12.0455 22.4149 12.1139 22.3709L21.2008 17.2871C21.2919 17.2431 21.3375 17.1551 21.3375 17.045V6.89944C21.3375 6.7894 21.2919 6.70137 21.2008 6.65735L12.1139 1.59556C12.0228 1.55155 11.9089 1.55155 11.8406 1.59556L2.75362 6.65735C2.66253 6.70137 2.61698 6.81141 2.61698 6.89944V17.045C2.61698 17.1331 2.66253 17.2431 2.75362 17.2871L5.23602 18.6736C6.57971 19.3338 7.42236 18.5636 7.42236 17.7933V7.77975C7.42236 7.6477 7.53623 7.51566 7.69565 7.51566H8.85714C8.99379 7.51566 9.13043 7.6257 9.13043 7.77975V17.7933C9.13043 19.5319 8.15114 20.5443 6.44306 20.5443C5.91925 20.5443 5.50932 20.5443 4.34783 19.9941L1.95652 18.6736C1.36439 18.3435 1 17.7273 1 17.067V6.92145C1 6.26121 1.36439 5.645 1.95652 5.31488L11.0435 0.231082C11.6128 -0.0770272 12.3872 -0.0770272 12.9565 0.231082L22.0435 5.31488C22.6356 5.645 23 6.26121 23 6.92145V17.067C23 17.7273 22.6356 18.3435 22.0435 18.6736L12.9565 23.7574C12.6605 23.8894 12.3188 23.9555 12 23.9555ZM14.8012 16.979C10.8157 16.979 9.99586 15.2184 9.99586 13.7219C9.99586 13.5898 10.1097 13.4578 10.2692 13.4578H11.4534C11.5901 13.4578 11.7039 13.5458 11.7039 13.6778C11.8861 14.8442 12.4099 15.4165 14.824 15.4165C16.7371 15.4165 17.5569 14.9983 17.5569 14.008C17.5569 13.4358 17.3292 13.0176 14.3458 12.7315C11.8634 12.4894 10.3147 11.9612 10.3147 10.0466C10.3147 8.26392 11.8634 7.20755 14.4596 7.20755C17.3747 7.20755 18.8095 8.17589 18.9917 10.2886C18.9917 10.3547 18.9689 10.4207 18.9234 10.4867C18.8778 10.5307 18.8095 10.5747 18.7412 10.5747H17.5569C17.4431 10.5747 17.3292 10.4867 17.3064 10.3767C17.0331 9.16624 16.3271 8.7701 14.4596 8.7701C12.3644 8.7701 12.1139 9.47435 12.1139 10.0025C12.1139 10.6408 12.4099 10.8388 15.234 11.191C18.0352 11.5431 19.3561 12.0493 19.3561 13.9419C19.3333 15.8786 17.6936 16.979 14.8012 16.979Z" fill="black"/>
</svg>
