<svg width="24" height="24" viewBox="0 0 24 24" fill="none" xmlns="http://www.w3.org/2000/svg">
<path d="M8.42215 20.0814C8.42215 20.9774 8.43235 21.8344 8.43784 22.3663C8.44056 22.6298 8.61026 22.8632 8.86048 22.9459C10.9384 23.632 13.1769 23.6639 15.2735 23.0371L15.5663 22.9495C15.8485 22.8652 16.0422 22.6062 16.0443 22.3117C16.0495 21.5786 16.0609 20.2952 16.0609 18.7824C16.0609 17.4102 15.5835 16.532 15.0297 16.0746C18.4289 15.7087 22 14.4646 22 8.84782C22 7.2378 21.408 5.93881 20.4341 4.91425C20.5868 4.54834 21.1215 3.0481 20.2813 1.03558C20.2813 1.03558 19.0018 0.633071 16.08 2.53582C14.8578 2.2065 13.5592 2.04184 12.2606 2.04184C10.962 2.04184 9.66344 2.2065 8.44124 2.53582C5.51943 0.651367 4.23994 1.03558 4.23994 1.03558C3.39968 3.0481 3.93439 4.54834 4.08717 4.91425C3.11323 5.93881 2.52122 7.2561 2.52122 8.84782C2.52122 14.4463 6.07324 15.7087 9.47247 16.0746C9.03325 16.4405 8.63221 17.0809 8.49854 18.0322C7.62008 18.4165 5.42394 19.0385 4.04897 16.8247C3.76252 16.3856 2.90316 15.3062 1.70006 15.3245C0.420572 15.3428 1.18445 16.0197 1.71916 16.2942C2.36845 16.6418 3.11323 17.9408 3.2851 18.3616C3.59065 19.1849 4.58368 20.7583 8.42215 20.0814Z" fill="black"/>
</svg>
