<svg width="24" height="24" viewBox="0 0 24 24" fill="none" xmlns="http://www.w3.org/2000/svg">
<circle cx="7" cy="6" r="3" stroke="black" stroke-width="2"/>
<path d="M10 13H7H5.81765C4.33961 13 3.08179 14.0765 2.85361 15.5369L2.36074 18.6912C2.17122 19.9042 3.1091 21 4.33677 21H9" stroke="black" stroke-width="2" stroke-linecap="round" stroke-linejoin="round"/>
<path d="M21.6393 18.6912L21.1464 15.5369C20.9182 14.0765 19.6604 13 18.1823 13H17H15.8177C14.3396 13 13.0818 14.0765 12.8536 15.5369L12.3607 18.6912C12.1712 19.9042 13.1091 21 14.3368 21H19.6632C20.8909 21 21.8288 19.9042 21.6393 18.6912Z" stroke="black" stroke-width="2" stroke-linecap="round" stroke-linejoin="round"/>
<circle cx="17" cy="6" r="3" stroke="black" stroke-width="2"/>
</svg>
