<svg width="24" height="24" viewBox="0 0 24 24" fill="none" xmlns="http://www.w3.org/2000/svg">
<path d="M12 5.5C5.27148 5.5 0 8.35547 0 12C0 15.6445 5.27148 18.5 12 18.5C18.7285 18.5 24 15.6445 24 12C24 8.35547 18.7285 5.5 12 5.5ZM10.7539 7.5H12.0645L11.6484 9.5H12.8184C13.5605 9.5 14.0586 9.60352 14.3418 9.86328C14.6191 10.1191 14.7031 10.5391 14.5918 11.1113L14.0723 13.5H12.7402L13.2188 11.291C13.2773 10.9883 13.2539 10.7773 13.1523 10.666C13.0508 10.5547 12.8281 10.5 12.4941 10.5H11.4453L10.8125 13.5H9.5L10.7539 7.5ZM5 9.5H7.66602C8.9375 9.5 9.70703 10.3516 9.40625 11.623C9.05664 13.0996 8.11914 13.5 6.39648 13.5H5.57227L5.31055 15H3.98633L5 9.5ZM15.5 9.5H18.166C19.4375 9.5 20.207 10.3516 19.9062 11.623C19.5566 13.0996 18.6191 13.5 16.8965 13.5H16.0723L15.8105 15H14.4863L15.5 9.5ZM6.13477 10.5L5.75781 12.5H6.61328C7.35352 12.5 8.04102 12.416 8.15625 11.3125C8.19922 10.8848 8.02148 10.5 7.16602 10.5H6.13477ZM16.6348 10.5L16.2578 12.5H17.1133C17.8535 12.5 18.541 12.416 18.6562 11.3125C18.6992 10.8848 18.5215 10.5 17.666 10.5H16.6348Z" fill="black"/>
</svg>
