<svg width="24" height="24" viewBox="0 0 24 24" fill="none" xmlns="http://www.w3.org/2000/svg">
<path d="M16.1154 2H7.88452C6.97058 2 6.19967 2.57157 6.08631 3.33322L5.99993 4C5.91977 4.53859 6.17355 4.98502 6.58415 5.3629C6.70919 5.47799 6.83522 5.593 6.9591 5.70999C7.73452 6.44229 7.8081 7.56836 7.46672 8.5788L7.038 9.84777C7.01264 9.94921 6.98369 10.049 6.94775 10.1472C6.84909 10.4168 6.61794 11.0096 6.31775 11.5267C6.12789 11.8537 5.83979 12.1068 5.52513 12.3165C4.76867 12.8208 5.12568 14 6.03485 14L10.4999 14V16.1115C10.4999 17.3534 10.2891 18.5783 10.8445 19.6892L11.9999 22L13.1554 19.6892C13.7108 18.5783 13.4999 17.3534 13.4999 16.1115V14L17.965 14C18.8742 14 19.2312 12.8208 18.4748 12.3165C18.1601 12.1068 17.872 11.8537 17.6821 11.5267C17.382 11.0096 17.1508 10.4168 17.0521 10.1472C17.0162 10.049 16.9873 9.94921 16.9619 9.84778L16.5332 8.57828C16.1921 7.56814 16.2656 6.44246 17.0407 5.71034C17.1646 5.59324 17.2908 5.47811 17.4159 5.36292C17.8265 4.98503 18.0802 4.5386 18 4L17.9136 3.33322C17.8002 2.57157 17.0293 2 16.1154 2Z" stroke="black" stroke-width="2" stroke-linecap="round" stroke-linejoin="round"/>
</svg>
