<svg width="24" height="24" viewBox="0 0 24 24" fill="none" xmlns="http://www.w3.org/2000/svg">
<path d="M16.1154 2H7.88452C6.97058 2 6.19967 2.57157 6.08631 3.33322L5.99993 4C5.91977 4.53859 6.17355 4.98502 6.58415 5.3629C6.75486 5.52002 6.92741 5.67701 7.09382 5.83907C7.77798 6.50531 7.87279 7.50925 7.64113 8.43569L7.038 10.8478C7.01264 10.9492 6.98369 11.049 6.94775 11.1472C6.84909 11.4168 6.61794 12.0096 6.31775 12.5267C6.12789 12.8537 5.83979 13.1068 5.52513 13.3165C4.76867 13.8208 5.12568 15 6.03485 15L10.4999 15V16.1115C10.4999 17.3534 10.2891 18.5783 10.8445 19.6892L11.9999 22L13.1554 19.6892C13.7108 18.5783 13.4999 17.3534 13.4999 16.1115V15L17.965 15C18.8742 15 19.2312 13.8208 18.4748 13.3165C18.1601 13.1068 17.872 12.8537 17.6821 12.5267C17.382 12.0096 17.1508 11.4168 17.0521 11.1472C17.0162 11.049 16.9873 10.9492 16.9619 10.8478L16.3589 8.43521C16.1274 7.50906 16.2221 6.50546 16.906 5.83937C17.0725 5.67721 17.2451 5.52013 17.4159 5.36292C17.8265 4.98503 18.0802 4.5386 18 4L17.9136 3.33322C17.8002 2.57157 17.0293 2 16.1154 2Z" stroke="black" stroke-width="2" stroke-linecap="round" stroke-linejoin="round"/>
</svg>
