<svg width="24" height="24" viewBox="0 0 24 24" fill="none" xmlns="http://www.w3.org/2000/svg">
<g clip-path="url(#clip0_2601_269)">
<path d="M15.4016 10.2C15.4016 11.1919 14.5935 12 13.6016 12H10.2V8.4H13.6016C14.5935 8.4 15.4016 9.20806 15.4016 10.2ZM24 12C24 18.629 18.629 24 12 24C5.37097 24 0 18.629 0 12C0 5.37097 5.37097 0 12 0C18.629 0 24 5.37097 24 12ZM17.8016 10.2C17.8016 7.88226 15.9194 6 13.6016 6H7.8V18H10.2V14.4H13.6016C15.9194 14.4 17.8016 12.5177 17.8016 10.2Z" fill="black"/>
</g>
<defs>
<clipPath id="clip0_2601_269">
<rect width="24" height="24" fill="white"/>
</clipPath>
</defs>
</svg>
