<svg width="24" height="24" viewBox="0 0 24 24" fill="none" xmlns="http://www.w3.org/2000/svg">
<path d="M15.6876 10H8.32633C6.13847 10 4.30164 11.4146 4.06462 13.282C3.7396 15.8428 4.59366 17.3866 7.69879 18.4102C9.09338 18.8699 10.2777 19.8744 10.7096 21.2778L10.9318 22L11.0272 21.9181C11.6762 21.3609 12.4103 20.9114 13.2016 20.5867L15.1231 19.7982C18.4086 18.45 20.3438 16.3901 19.9493 13.282C19.7123 11.4146 17.8754 10 15.6876 10Z" stroke="black" stroke-width="2" stroke-linecap="round" stroke-linejoin="round"/>
<path d="M11.9638 6.96986C11.9638 6.96986 8.88872 7.27638 7.27853 5.93455C5.66835 4.59273 6.03618 2.03015 6.03618 2.03015C6.03618 2.03015 9.11128 1.72362 10.7215 3.06545C12.3317 4.40727 11.9638 6.96986 11.9638 6.96986Z" stroke="black" stroke-width="2" stroke-linecap="round" stroke-linejoin="round"/>
<path d="M12.0362 6.96986C12.0362 6.96986 15.1113 7.27638 16.7215 5.93455C18.3317 4.59273 17.9638 2.03015 17.9638 2.03015C17.9638 2.03015 14.8887 1.72362 13.2785 3.06545C11.6683 4.40727 12.0362 6.96986 12.0362 6.96986Z" stroke="black" stroke-width="2" stroke-linecap="round" stroke-linejoin="round"/>
<path d="M9.19612 15.9806C9.73768 15.8723 10.0889 15.3454 9.98058 14.8039C9.87227 14.2623 9.34544 13.9111 8.80388 14.0194L9.19612 15.9806ZM6 17.5C6.97014 17.7425 6.97001 17.7431 6.96988 17.7436C6.96984 17.7437 6.96971 17.7442 6.96963 17.7446C6.96947 17.7452 6.96931 17.7458 6.96916 17.7464C6.96886 17.7476 6.96858 17.7487 6.96833 17.7496C6.96784 17.7516 6.96744 17.753 6.96716 17.7541C6.9666 17.7562 6.96648 17.7565 6.96685 17.7553C6.96757 17.7528 6.97021 17.7438 6.97505 17.7293C6.98478 17.7001 7.00315 17.6491 7.0325 17.5824C7.0916 17.4481 7.1924 17.2565 7.35185 17.0514C7.66062 16.6545 8.20956 16.1779 9.19612 15.9806L8.80388 14.0194C7.29044 14.3221 6.33938 15.0955 5.77315 15.8236C5.4951 16.181 5.31465 16.5206 5.20187 16.7769C5.14529 16.9055 5.10506 17.0147 5.07768 17.0969C5.06397 17.138 5.05342 17.1725 5.04561 17.1996C5.0417 17.2131 5.03846 17.2247 5.03586 17.2344C5.03455 17.2393 5.03341 17.2436 5.03241 17.2475C5.03191 17.2494 5.03145 17.2512 5.03102 17.2528C5.03081 17.2537 5.03061 17.2545 5.03041 17.2552C5.03032 17.2556 5.03018 17.2562 5.03013 17.2564C5.02999 17.2569 5.02986 17.2575 6 17.5Z" fill="black"/>
</svg>
