<svg width="24" height="24" viewBox="0 0 24 24" fill="none" xmlns="http://www.w3.org/2000/svg">
<g clip-path="url(#clip0_950_642)">
<path d="M24 11.689C24 10.0991 22.009 8.59234 18.9564 7.65797C19.6608 4.54668 19.3477 2.07134 17.9682 1.27884C17.6502 1.09295 17.2784 1.00489 16.8724 1.00489V2.0958C17.0974 2.0958 17.2784 2.13983 17.4301 2.22299C18.0954 2.60457 18.384 4.05748 18.159 5.92621C18.1052 6.38606 18.0171 6.87036 17.9095 7.36445C16.9507 7.12964 15.9038 6.94863 14.8031 6.83123C14.1427 5.92621 13.4578 5.10436 12.768 4.38524C14.3628 2.90298 15.8598 2.09091 16.8773 2.09091V1C15.532 1 13.7709 1.95883 11.9902 3.6221C10.2095 1.96861 8.44843 1.01957 7.10314 1.01957V2.11048C8.11578 2.11048 9.61761 2.91765 11.2124 4.39013C10.5275 5.10925 9.84264 5.92621 9.19201 6.83123C8.08643 6.94863 7.03954 7.12964 6.08072 7.36934C5.9682 6.88015 5.88504 6.40563 5.82633 5.95067C5.59641 4.08194 5.88015 2.62903 6.54056 2.24256C6.68732 2.1545 6.87811 2.11537 7.10314 2.11537V1.02446C6.69221 1.02446 6.32042 1.11252 5.99755 1.29841C4.62291 2.09091 4.31472 4.56135 5.02405 7.66286C1.98125 8.60212 0 10.104 0 11.689C0 13.2788 1.99103 14.7856 5.04362 15.7199C4.33918 18.8312 4.65226 21.3066 6.0318 22.0991C6.34978 22.285 6.72157 22.373 7.13249 22.373C8.47778 22.373 10.2389 21.4142 12.0196 19.7509C13.8002 21.4044 15.5614 22.3534 16.9066 22.3534C17.3176 22.3534 17.6894 22.2654 18.0122 22.0795C19.3869 21.287 19.6951 18.8166 18.9857 15.715C22.0188 14.7807 24 13.274 24 11.689ZM17.6307 8.42601C17.4497 9.05707 17.2246 9.7077 16.9702 10.3583C16.7697 9.96698 16.5593 9.57562 16.3294 9.18427C16.1044 8.79291 15.8647 8.41133 15.625 8.03954C16.3196 8.14227 16.9898 8.26947 17.6307 8.42601ZM15.3901 13.636C15.0086 14.2964 14.6172 14.9225 14.2112 15.5047C13.4823 15.5683 12.7436 15.6025 12 15.6025C11.2613 15.6025 10.5226 15.5683 9.79861 15.5096C9.39258 14.9274 8.99633 14.3062 8.61476 13.6506C8.24297 13.0098 7.90542 12.3592 7.59723 11.7036C7.90053 11.0481 8.24297 10.3926 8.60987 9.75173C8.99144 9.09132 9.3828 8.46515 9.78883 7.883C10.5177 7.81941 11.2564 7.78516 12 7.78516C12.7387 7.78516 13.4774 7.81941 14.2014 7.87811C14.6074 8.46025 15.0037 9.08153 15.3852 9.73706C15.757 10.3779 16.0946 11.0285 16.4028 11.6841C16.0946 12.3396 15.757 12.9951 15.3901 13.636ZM16.9702 13C17.2344 13.6555 17.4594 14.311 17.6453 14.947C17.0045 15.1035 16.3294 15.2356 15.6298 15.3384C15.8695 14.9617 16.1093 14.5752 16.3343 14.179C16.5593 13.7876 16.7697 13.3914 16.9702 13ZM12.0098 18.2197C11.5548 17.7501 11.0999 17.2267 10.6498 16.6543C11.0901 16.6739 11.5402 16.6885 11.9951 16.6885C12.455 16.6885 12.9099 16.6788 13.3551 16.6543C12.9148 17.2267 12.4598 17.7501 12.0098 18.2197ZM8.37016 15.3384C7.6755 15.2356 7.0053 15.1084 6.36445 14.9519C6.54545 14.3208 6.77048 13.6702 7.02487 13.0196C7.22544 13.4109 7.43579 13.8023 7.66572 14.1936C7.89564 14.585 8.13045 14.9666 8.37016 15.3384ZM11.9853 5.15817C12.4403 5.6278 12.8952 6.15124 13.3453 6.7236C12.905 6.70404 12.455 6.68936 12 6.68936C11.5402 6.68936 11.0852 6.69914 10.64 6.7236C11.0803 6.15124 11.5353 5.6278 11.9853 5.15817ZM8.36527 8.03954C8.12556 8.41622 7.88585 8.80269 7.66082 9.19894C7.43579 9.5903 7.22544 9.98166 7.02487 10.373C6.7607 9.71749 6.53567 9.06197 6.34978 8.42601C6.99062 8.27436 7.66572 8.14227 8.36527 8.03954ZM3.93804 14.1643C2.20628 13.4256 1.08602 12.457 1.08602 11.689C1.08602 10.9209 2.20628 9.94741 3.93804 9.21362C4.35875 9.03261 4.81859 8.87118 5.29311 8.71953C5.57195 9.67835 5.93885 10.6763 6.3938 11.6987C5.94374 12.7163 5.58174 13.7093 5.30779 14.6633C4.82348 14.5116 4.36364 14.3453 3.93804 14.1643ZM6.56991 21.1549C5.90461 20.7733 5.61598 19.3204 5.84101 17.4517C5.89482 16.9918 5.98288 16.5075 6.0905 16.0135C7.04933 16.2483 8.09621 16.4293 9.1969 16.5467C9.85732 17.4517 10.5422 18.2735 11.232 18.9927C9.63718 20.4749 8.14024 21.287 7.12271 21.287C6.90257 21.2821 6.71667 21.2381 6.56991 21.1549ZM18.1737 17.4272C18.4036 19.296 18.1199 20.7489 17.4594 21.1353C17.3127 21.2234 17.1219 21.2625 16.8969 21.2625C15.8842 21.2625 14.3824 20.4554 12.7876 18.9829C13.4725 18.2638 14.1574 17.4468 14.808 16.5418C15.9136 16.4244 16.9605 16.2434 17.9193 16.0037C18.0318 16.4978 18.1199 16.9723 18.1737 17.4272ZM20.0571 14.1643C19.6364 14.3453 19.1765 14.5067 18.702 14.6584C18.4232 13.6996 18.0563 12.7016 17.6013 11.6792C18.0514 10.6616 18.4134 9.66857 18.6873 8.71464C19.1716 8.86629 19.6315 9.03261 20.062 9.21362C21.7937 9.9523 22.914 10.9209 22.914 11.689C22.9091 12.457 21.7888 13.4305 20.0571 14.1643Z" fill="black"/>
<path d="M11.9951 13.9246C13.2298 13.9246 14.2307 12.9237 14.2307 11.689C14.2307 10.4542 13.2298 9.45332 11.9951 9.45332C10.7604 9.45332 9.75948 10.4542 9.75948 11.689C9.75948 12.9237 10.7604 13.9246 11.9951 13.9246Z" fill="black"/>
</g>
<defs>
<clipPath id="clip0_950_642">
<rect width="24" height="24" fill="white"/>
</clipPath>
</defs>
</svg>
