<svg width="24" height="24" viewBox="0 0 24 24" fill="none" xmlns="http://www.w3.org/2000/svg">
<path fill-rule="evenodd" clip-rule="evenodd" d="M9.06607 1C7.84995 1.0009 6.86574 1.98584 6.86664 3.19953C6.86574 4.41322 7.85085 5.39816 9.06697 5.39906H11.2673V3.20043C11.2682 1.98674 10.2831 1.00179 9.06607 1ZM9.06607 6.86661H3.20033C1.98422 6.8675 0.999104 7.85245 1 9.06614C0.998205 10.2798 1.98332 11.2648 3.19943 11.2666H9.06607C10.2822 11.2657 11.2673 10.2807 11.2664 9.06703C11.2673 7.85245 10.2822 6.8675 9.06607 6.86661Z" fill="black"/>
<path fill-rule="evenodd" clip-rule="evenodd" d="M23 9.06614C23.0009 7.85245 22.0158 6.8675 20.7996 6.86661C19.5835 6.8675 18.5984 7.85245 18.5993 9.06614V11.2666H20.7996C22.0158 11.2657 23.0009 10.2807 23 9.06614ZM17.1333 9.06614V3.19953C17.1342 1.98674 16.15 1.00179 14.9338 1C13.7177 1.0009 12.7326 1.98584 12.7335 3.19953V9.06614C12.7317 10.2798 13.7168 11.2648 14.9329 11.2666C16.1491 11.2657 17.1342 10.2807 17.1333 9.06614Z" fill="black"/>
<path fill-rule="evenodd" clip-rule="evenodd" d="M14.9329 23C16.149 22.9991 17.1341 22.0141 17.1332 20.8004C17.1341 19.5867 16.149 18.6018 14.9329 18.6009H12.7326V20.8004C12.7317 22.0133 13.7168 22.9982 14.9329 23ZM14.9329 17.1324H20.7996C22.0157 17.1315 23.0008 16.1466 22.9999 14.9329C23.0017 13.7192 22.0166 12.7342 20.8005 12.7324H14.9338C13.7177 12.7333 12.7326 13.7183 12.7335 14.932C12.7326 16.1466 13.7168 17.1315 14.9329 17.1324Z" fill="black"/>
<path fill-rule="evenodd" clip-rule="evenodd" d="M1.00024 14.9327C0.999346 16.1464 1.98446 17.1313 3.20058 17.1322C4.4167 17.1313 5.40182 16.1464 5.40092 14.9327V12.7331H3.20058C1.98446 12.734 0.999346 13.719 1.00024 14.9327ZM6.86691 14.9327V20.7993C6.86512 22.013 7.85023 22.998 9.06635 22.9998C10.2825 22.9989 11.2676 22.0139 11.2667 20.8002V14.9345C11.2685 13.7208 10.2834 12.7358 9.06725 12.734C7.85023 12.734 6.86601 13.719 6.86691 14.9327Z" fill="black"/>
</svg>
