<svg width="24" height="24" viewBox="0 0 24 24" fill="none" xmlns="http://www.w3.org/2000/svg">
<path d="M11.9954 0C5.38111 0 0 5.38151 0 11.9963C0 18.6152 5.38111 24 11.9954 24C18.6147 24 24 18.6152 24 11.9963C24 5.38151 18.6147 0 11.9954 0ZM5.90793 16.4042C7.29868 15.9809 8.72459 15.7662 10.1459 15.7662C12.5597 15.7662 14.9427 16.3779 17.0383 17.5359C17.163 17.6038 17.2763 17.8284 17.3271 18.108C17.378 18.3875 17.3577 18.6749 17.2761 18.8244C17.1731 19.0163 16.9641 19.1403 16.7436 19.1403C16.6343 19.1403 16.5382 19.1157 16.4421 19.0638C14.5183 18.0064 12.3412 17.4474 10.1459 17.4474C8.81957 17.4474 7.51751 17.6437 6.27698 18.0304C6.21655 18.0487 6.15439 18.0581 6.09222 18.0581C5.82059 18.0582 5.58484 17.8851 5.50576 17.6284C5.39898 17.2773 5.61986 16.4984 5.90793 16.4042ZM5.38466 11.9845C6.93474 11.5631 8.53668 11.3494 10.1459 11.3494C13.0389 11.3494 15.9117 12.0494 18.4555 13.3748C18.6338 13.4653 18.7652 13.6187 18.8254 13.8068C18.8865 13.9973 18.8681 14.2021 18.7728 14.3849C18.5458 14.8292 18.2804 15.1277 18.1124 15.1277C17.9932 15.1277 17.8783 15.0991 17.7638 15.0419C15.4016 13.8119 12.8387 13.1882 10.1459 13.1882C8.64803 13.1882 7.17852 13.3852 5.77951 13.7732C5.71444 13.7909 5.64763 13.7998 5.58114 13.7998C5.24459 13.7998 4.94801 13.5725 4.8602 13.2479C4.74775 12.8258 5.00467 12.0878 5.38466 11.9845ZM5.25065 9.09687C5.17959 9.11441 5.10696 9.12323 5.03473 9.12323C4.62799 9.12331 4.27554 8.84845 4.17765 8.4554C4.05498 7.95785 4.36627 7.37988 4.81708 7.26633C6.57033 6.83567 8.36317 6.61731 10.1459 6.61731C13.5968 6.61731 16.9018 7.39318 19.9702 8.92383C20.1833 9.02896 20.3422 9.21041 20.4177 9.43475C20.4932 9.65933 20.4766 9.90106 20.3711 10.1146C20.2274 10.4022 19.9169 10.7119 19.5747 10.7119C19.4428 10.7119 19.3073 10.6809 19.1873 10.6246C16.3687 9.21443 13.3268 8.49938 10.1459 8.49938C8.51127 8.49946 6.86431 8.70043 5.25065 9.09687Z" fill="black"/>
</svg>
