<svg width="24" height="24" viewBox="0 0 24 24" fill="none" xmlns="http://www.w3.org/2000/svg">
<path d="M12 7C9.23858 7 7 9.23858 7 12C7 14.7614 9.23858 17 12 17C14.7614 17 17 14.7614 17 12C17 9.23858 14.7614 7 12 7Z" fill="black"/>
<path fill-rule="evenodd" clip-rule="evenodd" d="M12 1C12.5523 1 13 1.44772 13 2V3C13 3.55228 12.5523 4 12 4C11.4477 4 11 3.55228 11 3V2C11 1.44772 11.4477 1 12 1ZM3.29289 3.29289C3.68342 2.90237 4.31658 2.90237 4.70711 3.29289L6.20711 4.79289C6.59763 5.18342 6.59763 5.81658 6.20711 6.20711C5.81658 6.59763 5.18342 6.59763 4.79289 6.20711L3.29289 4.70711C2.90237 4.31658 2.90237 3.68342 3.29289 3.29289ZM20.7071 3.29289C21.0976 3.68342 21.0976 4.31658 20.7071 4.70711L19.2071 6.20711C18.8166 6.59763 18.1834 6.59763 17.7929 6.20711C17.4024 5.81658 17.4024 5.18342 17.7929 4.79289L19.2929 3.29289C19.6834 2.90237 20.3166 2.90237 20.7071 3.29289ZM1 12C1 11.4477 1.44772 11 2 11H3C3.55228 11 4 11.4477 4 12C4 12.5523 3.55228 13 3 13H2C1.44772 13 1 12.5523 1 12ZM20 12C20 11.4477 20.4477 11 21 11H22C22.5523 11 23 11.4477 23 12C23 12.5523 22.5523 13 22 13H21C20.4477 13 20 12.5523 20 12ZM6.20711 17.7929C6.59763 18.1834 6.59763 18.8166 6.20711 19.2071L4.70711 20.7071C4.31658 21.0976 3.68342 21.0976 3.29289 20.7071C2.90237 20.3166 2.90237 19.6834 3.29289 19.2929L4.79289 17.7929C5.18342 17.4024 5.81658 17.4024 6.20711 17.7929ZM17.7929 17.7929C18.1834 17.4024 18.8166 17.4024 19.2071 17.7929L20.7071 19.2929C21.0976 19.6834 21.0976 20.3166 20.7071 20.7071C20.3166 21.0976 19.6834 21.0976 19.2929 20.7071L17.7929 19.2071C17.4024 18.8166 17.4024 18.1834 17.7929 17.7929ZM12 20C12.5523 20 13 20.4477 13 21V22C13 22.5523 12.5523 23 12 23C11.4477 23 11 22.5523 11 22V21C11 20.4477 11.4477 20 12 20Z" fill="black"/>
</svg>
