<svg width="24" height="24" viewBox="0 0 24 24" fill="none" xmlns="http://www.w3.org/2000/svg">
<path fill-rule="evenodd" clip-rule="evenodd" d="M12 1C12.5523 1 13 1.44772 13 2V3C13 3.55228 12.5523 4 12 4C11.4477 4 11 3.55228 11 3V2C11 1.44772 11.4477 1 12 1ZM3.29289 3.29289C3.68342 2.90237 4.31658 2.90237 4.70711 3.29289L5.70711 4.29289C6.09763 4.68342 6.09763 5.31658 5.70711 5.70711C5.31658 6.09763 4.68342 6.09763 4.29289 5.70711L3.29289 4.70711C2.90237 4.31658 2.90237 3.68342 3.29289 3.29289ZM20.7071 3.29289C21.0976 3.68342 21.0976 4.31658 20.7071 4.70711L19.7071 5.70711C19.3166 6.09763 18.6834 6.09763 18.2929 5.70711C17.9024 5.31658 17.9024 4.68342 18.2929 4.29289L19.2929 3.29289C19.6834 2.90237 20.3166 2.90237 20.7071 3.29289ZM12 7C9.23858 7 7 9.23858 7 12C7 14.7614 9.23858 17 12 17C14.7614 17 17 14.7614 17 12C17 9.23858 14.7614 7 12 7ZM1 12C1 11.4477 1.44772 11 2 11H3C3.55228 11 4 11.4477 4 12C4 12.5523 3.55228 13 3 13H2C1.44772 13 1 12.5523 1 12ZM20 12C20 11.4477 20.4477 11 21 11H22C22.5523 11 23 11.4477 23 12C23 12.5523 22.5523 13 22 13H21C20.4477 13 20 12.5523 20 12ZM4.29289 18.2929C4.68342 17.9024 5.31658 17.9024 5.70711 18.2929C6.09763 18.6834 6.09763 19.3166 5.70711 19.7071L4.70711 20.7071C4.31658 21.0976 3.68342 21.0976 3.29289 20.7071C2.90237 20.3166 2.90237 19.6834 3.29289 19.2929L4.29289 18.2929ZM19.2929 20.7071L18.2929 19.7071C17.9024 19.3166 17.9024 18.6834 18.2929 18.2929C18.6834 17.9024 19.3166 17.9024 19.7071 18.2929L20.7071 19.2929C21.0976 19.6834 21.0976 20.3166 20.7071 20.7071C20.3166 21.0976 19.6834 21.0976 19.2929 20.7071ZM12 20C12.5523 20 13 20.4477 13 21V22C13 22.5523 12.5523 23 12 23C11.4477 23 11 22.5523 11 22V21C11 20.4477 11.4477 20 12 20Z" fill="black"/>
<path d="M12 6C8.68629 6 6 8.68629 6 12C6 15.3137 8.68629 18 12 18C15.3137 18 18 15.3137 18 12C18 8.68629 15.3137 6 12 6Z" fill="black"/>
</svg>
