<svg width="24" height="24" viewBox="0 0 24 24" fill="none" xmlns="http://www.w3.org/2000/svg">
<path fill-rule="evenodd" clip-rule="evenodd" d="M24 12C24 18.6274 18.6274 24 12 24C5.37258 24 0 18.6274 0 12C0 5.37258 5.37258 0 12 0C18.6274 0 24 5.37258 24 12ZM12.43 8.85893C11.2629 9.3444 8.93015 10.3492 5.43191 11.8733C4.86385 12.0992 4.56628 12.3202 4.53919 12.5363C4.4934 12.9015 4.95073 13.0453 5.57349 13.2411C5.6582 13.2678 5.74598 13.2954 5.83596 13.3246C6.44866 13.5238 7.27284 13.7568 7.70131 13.766C8.08996 13.7744 8.52375 13.6142 9.00266 13.2853C12.2712 11.079 13.9584 9.96381 14.0643 9.93977C14.1391 9.92281 14.2426 9.90148 14.3128 9.96385C14.3829 10.0262 14.3761 10.1443 14.3686 10.176C14.3233 10.3691 12.5281 12.0381 11.5991 12.9018C11.3095 13.171 11.1041 13.362 11.0621 13.4056C10.968 13.5034 10.8721 13.5958 10.78 13.6846C10.2108 14.2333 9.78393 14.6448 10.8036 15.3168C11.2937 15.6397 11.6858 15.9067 12.077 16.1731C12.5042 16.4641 12.9303 16.7543 13.4816 17.1157C13.6221 17.2078 13.7562 17.3034 13.8869 17.3965C14.3841 17.751 14.8308 18.0694 15.3826 18.0186C15.7033 17.9891 16.0345 17.6876 16.2027 16.7884C16.6002 14.6632 17.3816 10.0585 17.5622 8.16098C17.5781 7.99473 17.5582 7.78197 17.5422 7.68858C17.5262 7.59518 17.4928 7.46211 17.3714 7.3636C17.2276 7.24694 17.0057 7.22234 16.9064 7.22408C16.455 7.23204 15.7626 7.47282 12.43 8.85893Z" fill="black"/>
</svg>
