<svg width="24" height="24" viewBox="0 0 24 24" fill="none" xmlns="http://www.w3.org/2000/svg">
<path d="M3 5.4C3 4.07452 4.07452 3 5.4 3H18.6C19.9255 3 21 4.07452 21 5.4V5.4C21 5.73137 20.7314 6 20.4 6H3.6C3.26863 6 3 5.73137 3 5.4V5.4Z" stroke="black" stroke-width="2" stroke-linecap="round" stroke-linejoin="round"/>
<path d="M5 6H19L17.445 20.2175C17.334 21.2318 16.4772 22 15.4568 22H8.54318C7.52277 22 6.66598 21.2318 6.55503 20.2175L5 6Z" stroke="black" stroke-width="2" stroke-linecap="round" stroke-linejoin="round"/>
<path d="M6.3125 18L5.4375 10H18.5625L17.6875 18H6.3125Z" stroke="black" stroke-width="2" stroke-linecap="round" stroke-linejoin="round"/>
</svg>
