<svg width="24" height="24" viewBox="0 0 24 24" fill="none" xmlns="http://www.w3.org/2000/svg">
<path d="M2 7C2 5.89543 2.89543 5 4 5H20C21.1046 5 22 5.89543 22 7V9H2V7Z" stroke="black" stroke-width="2" stroke-linecap="round" stroke-linejoin="round"/>
<path d="M7 4C7 2.89543 7.89543 2 9 2H15C16.1046 2 17 2.89543 17 4V5H7V4Z" stroke="black" stroke-width="2" stroke-linecap="round" stroke-linejoin="round"/>
<path d="M4 12V20C4 21.1046 4.89543 22 6 22H18C19.1046 22 20 21.1046 20 20V12" stroke="black" stroke-width="2" stroke-linecap="round" stroke-linejoin="round"/>
<path d="M9 13V18" stroke="black" stroke-width="2" stroke-linecap="round"/>
<path d="M15 13V18" stroke="black" stroke-width="2" stroke-linecap="round"/>
</svg>
