<svg width="24" height="24" viewBox="0 0 24 24" fill="none" xmlns="http://www.w3.org/2000/svg">
<g clip-path="url(#clip0)">
<path d="M18.8952 22.5169C18.0974 23.3843 16.2489 23.9727 14.5938 24H14.4123C8.8548 24 7.64627 19.8357 7.64627 17.4063V10.658H5.45841C5.33683 10.658 5.22023 10.6087 5.13427 10.5212C5.0483 10.4336 5 10.3148 5 10.1909V7.00322C4.99986 6.83915 5.04958 6.67905 5.14232 6.54492C5.23505 6.41078 5.36627 6.30919 5.51794 6.25408C8.37258 5.22893 9.26558 2.69337 9.38763 0.764397C9.42335 0.248791 9.6853 8.86489e-05 10.1258 8.86489e-05H13.4002C13.4611 -0.0011213 13.5217 0.0100651 13.5784 0.0329957C13.635 0.0559262 13.6866 0.0901395 13.7301 0.133633C13.7736 0.177126 13.8082 0.229025 13.8318 0.286295C13.8554 0.343565 13.8675 0.405056 13.8675 0.467167V5.86889H17.6896C17.8112 5.86889 17.9278 5.9181 18.0137 6.00569C18.0997 6.09329 18.148 6.21209 18.148 6.33597V10.1666C18.148 10.2905 18.0997 10.4093 18.0137 10.4969C17.9278 10.5845 17.8112 10.6337 17.6896 10.6337H13.8497V16.8786C13.8497 18.4466 14.8647 18.8803 15.4898 18.8803C16 18.8579 16.5029 18.7492 16.9782 18.5588C17.1609 18.461 17.369 18.4239 17.5735 18.4527C17.6576 18.4775 17.7335 18.5249 17.7932 18.5901C17.8529 18.6552 17.8943 18.7356 17.9128 18.8227L18.9249 21.8375C18.9934 22.0741 19.0648 22.3349 18.8952 22.5169Z" fill="black"/>
</g>
<defs>
<clipPath id="clip0">
<rect width="24" height="24" fill="white"/>
</clipPath>
</defs>
</svg>
