<svg width="24" height="24" viewBox="0 0 24 24" fill="none" xmlns="http://www.w3.org/2000/svg">
<path d="M12 4C7.08455 4 3.08947 7.37843 3.00149 12.8167C2.99986 12.9175 3.08176 13 3.18262 13C3.25572 13 3.3214 12.9562 3.35234 12.89C3.87682 11.7671 4.93279 11 6.15001 11C7.33506 11 7.9638 11.7271 8.45559 12.8017C8.51029 12.9212 8.62849 13 8.75993 13C8.9029 13 9.02722 12.9063 9.08613 12.776C9.5594 11.7293 10.9012 11 12 11M12 4C16.9155 4 20.9105 7.37843 20.9985 12.8167C21.0002 12.9175 20.9183 13 20.8174 13C20.7443 13 20.6786 12.9562 20.6477 12.89C20.1232 11.7671 19.0672 11 17.85 11C16.665 11 16.0362 11.7271 15.5444 12.8017C15.4897 12.9212 15.3715 13 15.2401 13C15.0971 13 14.9728 12.9063 14.9139 12.776C14.4406 11.7293 13.0988 11 12 11M12 4V2M12 11V20C12 21.1046 11.1046 22 10 22C8.89544 22 8.00001 21.1046 8.00001 20" stroke="black" stroke-width="2" stroke-linecap="round" stroke-linejoin="round"/>
</svg>
