<svg width="24" height="24" viewBox="0 0 24 24" fill="none" xmlns="http://www.w3.org/2000/svg">
<path d="M3.18262 14C3.08176 14 2.99986 13.9175 3.00149 13.8167C3.08947 8.37843 7.08455 4 12 4C16.9155 4 20.9105 8.37843 20.9985 13.8167C21.0002 13.9175 20.9183 14 20.8174 14C20.7443 14 20.6786 13.9562 20.6477 13.89C20.1232 12.7671 19.0672 12 17.85 12C16.665 12 16.0362 12.7271 15.5444 13.8017C15.4897 13.9212 15.3715 14 15.2401 14C15.0971 14 14.9728 13.9063 14.9139 13.776C14.4406 12.7293 13.0988 12 12 12C10.9012 12 9.5594 12.7293 9.08613 13.776C9.02722 13.9063 8.9029 14 8.75993 14C8.62849 14 8.51029 13.9212 8.45559 13.8017C7.9638 12.7271 7.33506 12 6.15001 12C4.93279 12 3.87682 12.7671 3.35234 13.89C3.3214 13.9562 3.25572 14 3.18262 14Z" stroke="black" stroke-width="2" stroke-linecap="round" stroke-linejoin="round"/>
<path d="M12 12V20C12 21.1046 11.1046 22 10 22V22C8.89543 22 8 21.1046 8 20V19" stroke="black" stroke-width="2" stroke-linecap="round" stroke-linejoin="round"/>
<path d="M12 4V2" stroke="black" stroke-width="2" stroke-linecap="round" stroke-linejoin="round"/>
</svg>
