<svg width="24" height="24" viewBox="0 0 24 24" fill="none" xmlns="http://www.w3.org/2000/svg">
<path d="M11 8V3C11 2.44772 10.5523 2 10 2H3C2.44772 2 2 2.44772 2 3V8C2 10.2091 3.79086 12 6 12H7C9.20914 12 11 10.2091 11 8Z" stroke="black" stroke-width="2" stroke-linecap="round" stroke-linejoin="round"/>
<path d="M15 16V2H18C20.2091 2 22 3.79086 22 6V16H18" stroke="black" stroke-width="2" stroke-linecap="round" stroke-linejoin="round"/>
<path d="M15 16V21C15 21.5523 15.4477 22 16 22H17C17.5523 22 18 21.5523 18 21V16" stroke="black" stroke-width="2" stroke-linecap="round" stroke-linejoin="round"/>
<path d="M5 12V21C5 21.5523 5.44772 22 6 22H7C7.55228 22 8 21.5523 8 21V12" stroke="black" stroke-width="2" stroke-linecap="round" stroke-linejoin="round"/>
<path d="M5 6L5 2" stroke="black" stroke-width="2" stroke-linecap="round" stroke-linejoin="round"/>
<path d="M8 6L8 2" stroke="black" stroke-width="2" stroke-linecap="round" stroke-linejoin="round"/>
</svg>
