<svg width="24" height="24" viewBox="0 0 24 24" fill="none" xmlns="http://www.w3.org/2000/svg">
<path d="M21.9895 7.16004C21.8975 9.18679 20.4709 11.9593 17.7099 15.4834C14.8569 19.1611 12.441 21 10.4622 21C9.23704 21 8.20166 19.8785 7.3561 17.6411C6.79239 15.5859 6.22868 13.5306 5.65922 11.4811C5.03224 9.24372 4.35924 8.12218 3.63447 8.12218C3.47917 8.12218 2.92696 8.45238 1.98937 9.1014L1 7.83752C2.03538 6.93232 3.05926 6.03281 4.06588 5.1276C5.44639 3.94344 6.48753 3.32289 7.17778 3.26026C8.81139 3.10655 9.81801 4.21101 10.1976 6.58504C10.606 9.14125 10.8879 10.7353 11.049 11.3559C11.5206 13.4794 12.0383 14.5383 12.602 14.5383C13.0392 14.5383 13.7007 13.8495 14.5808 12.4717C15.4608 11.094 15.9325 10.0465 15.9958 9.32912C16.1223 8.13926 15.6507 7.54718 14.5808 7.54718C14.0803 7.54718 13.5626 7.66104 13.0277 7.88876C14.0573 4.53552 16.0303 2.90729 18.9409 3.00407C21.0979 3.061 22.1161 4.45012 21.9895 7.16004Z" fill="black"/>
</svg>
