<svg width="24" height="24" viewBox="0 0 24 24" fill="none" xmlns="http://www.w3.org/2000/svg">
<path fill-rule="evenodd" clip-rule="evenodd" d="M23.4493 5.94799C23.6161 5.40154 23.4493 5 22.6553 5H20.0297C19.3621 5 19.0543 5.34687 18.8874 5.72936C18.8874 5.72936 17.5521 8.92607 15.6606 11.0025C15.0487 11.6036 14.7705 11.7949 14.4367 11.7949C14.2698 11.7949 14.0194 11.6036 14.0194 11.0572V5.94799C14.0194 5.29225 13.8345 5 13.2781 5H9.15213C8.73494 5 8.48403 5.30434 8.48403 5.59278C8.48403 6.21441 9.42974 6.35777 9.52722 8.10641V11.9042C9.52722 12.7368 9.37413 12.8878 9.04032 12.8878C8.15023 12.8878 5.98507 9.67682 4.70093 6.00261C4.44927 5.28847 4.19686 5 3.52583 5H0.900218C0.150044 5 0 5.34687 0 5.72936C0 6.41244 0.890141 9.80039 4.14464 14.2812C6.31429 17.3412 9.37118 19 12.1528 19C13.8218 19 14.0283 18.6316 14.0283 17.997V15.6842C14.0283 14.9474 14.1864 14.8003 14.7149 14.8003C15.1043 14.8003 15.7719 14.9916 17.3296 16.467C19.1099 18.2156 19.4034 19 20.4047 19H23.0304C23.7805 19 24.1556 18.6316 23.9392 17.9045C23.7024 17.1799 22.8525 16.1286 21.7247 14.8823C21.1127 14.1719 20.1947 13.4069 19.9165 13.0243C19.5271 12.5326 19.6384 12.314 19.9165 11.8769C19.9165 11.8769 23.1155 7.45067 23.4493 5.94799Z" fill="black"/>
</svg>
