<svg width="24" height="24" viewBox="0 0 24 24" fill="none" xmlns="http://www.w3.org/2000/svg">
<path fill-rule="evenodd" clip-rule="evenodd" d="M17.4145 14.3822C17.1173 14.2334 15.6564 13.5147 15.384 13.4153C15.1117 13.3162 14.9136 13.2667 14.7154 13.5641C14.5173 13.8615 13.9478 14.5309 13.7745 14.7293C13.6012 14.9275 13.4278 14.9524 13.1307 14.8036C12.8335 14.6549 11.876 14.3411 10.7411 13.3287C9.85769 12.5407 9.26129 11.5677 9.08799 11.2702C8.91461 10.9727 9.06943 10.8119 9.21822 10.6637C9.35195 10.5306 9.51546 10.3166 9.66399 10.1431C9.81257 9.96961 9.86209 9.84558 9.96114 9.6474C10.0602 9.44899 10.0107 9.27553 9.93634 9.12682C9.86209 8.97808 9.26779 7.51537 9.02016 6.92034C8.77895 6.34096 8.53397 6.41944 8.35157 6.41024C8.17844 6.40165 7.98013 6.39981 7.78207 6.39981C7.58397 6.39981 7.26201 6.47418 6.98958 6.77159C6.71727 7.06908 5.94959 7.78806 5.94959 9.25059C5.94959 10.7133 7.01434 12.1263 7.16296 12.3246C7.31158 12.523 9.25829 15.5244 12.2393 16.8116C12.9482 17.1178 13.5017 17.3006 13.9333 17.4375C14.6451 17.6637 15.2929 17.6318 15.805 17.5552C16.3759 17.47 17.5631 16.8364 17.8107 16.1424C18.0583 15.4481 18.0583 14.8532 17.984 14.7293C17.9097 14.6053 17.7116 14.5309 17.4145 14.3822ZM11.9925 21.7853H11.9886C10.2148 21.7846 8.47517 21.3081 6.9575 20.4075L6.59654 20.1932L2.85541 21.1746L3.85395 17.527L3.61899 17.153C2.62951 15.5792 2.10688 13.7603 2.10765 11.8925C2.10983 6.44257 6.54415 2.0086 11.9965 2.0086C14.6367 2.00954 17.1185 3.03905 18.9849 4.9075C20.8511 6.77582 21.8782 9.25932 21.8772 11.9005C21.875 17.3509 17.4408 21.7853 11.9925 21.7853ZM20.4052 3.48773C18.1599 1.2398 15.1739 0.00128304 11.9925 0C5.43736 0 0.102301 5.33471 0.0996495 11.8918C0.0987941 13.9879 0.646396 16.0337 1.68711 17.8373L0 24L6.30443 22.3462C8.04154 23.2937 9.99728 23.7931 11.9877 23.7937H11.9926C18.547 23.7937 23.8825 18.4585 23.8852 11.9013C23.8864 8.72361 22.6505 5.73566 20.4052 3.48777" fill="black"/>
</svg>
