<svg width="24" height="24" viewBox="0 0 24 24" fill="none" xmlns="http://www.w3.org/2000/svg">
<g clip-path="url(#clip0)">
<path d="M23.4994 6.50662C23.3672 6.02747 23.1033 5.58939 22.7342 5.2363C22.365 4.88321 21.9036 4.62752 21.3961 4.49486C19.5182 4.00074 11.9939 4.00074 11.9939 4.00074C8.85647 3.96531 5.7199 4.1225 2.60425 4.47133C2.0966 4.61368 1.63593 4.87526 1.26573 5.23138C0.895536 5.58749 0.628022 6.02638 0.488446 6.50662C0.151841 8.32067 -0.0115629 10.1594 0.000183311 12.0007C-0.0123684 13.8421 0.151042 15.6809 0.488446 17.4949C0.625149 17.9738 0.892086 18.4111 1.26304 18.7639C1.63399 19.1166 2.09619 19.3725 2.60425 19.5066C4.50723 20.0007 11.9939 20.0007 11.9939 20.0007C15.1355 20.0362 18.2763 19.879 21.3961 19.5301C21.9036 19.3975 22.365 19.1418 22.7342 18.7887C23.1033 18.4356 23.3672 17.9975 23.4994 17.5184C23.8446 15.7052 24.0122 13.8662 24.0002 12.0243C24.0261 10.1741 23.8583 8.32597 23.4994 6.50662ZM9.60269 15.4243V8.57721L15.8625 12.0007L9.60269 15.4243Z" fill="black"/>
</g>
<defs>
<clipPath id="clip0">
<rect width="24" height="24" fill="white"/>
</clipPath>
</defs>
</svg>
